<svg width="1894" height="1193" viewBox="0 0 1894 1193" fill="none" xmlns="http://www.w3.org/2000/svg">
<path d="M271.037 582.913L290.605 561.498L240.127 515.374L0 778.163L91.4715 861.746L94.2672 858.687L96.7146 860.923L102.585 854.499L19.9854 779.022L231.879 547.131L271.037 582.913Z" fill="url(#paint0_linear_2071_12706)"/>
<path d="M386.054 648.716L326.092 593.925L306.83 615.62L382.7 684.946L436.372 626.209L448.608 637.39L471.811 611.998L443.36 586.001L386.054 648.716Z" fill="url(#paint1_linear_2071_12706)"/>
<path d="M530.902 712.587L554.104 687.195L633.646 759.878L610.444 785.27L530.902 712.587Z" fill="url(#paint2_linear_2071_12706)"/>
<path d="M692.125 859.907L715.327 834.515L750.815 866.943L453.381 1192.45L141.337 907.312L144.133 904.253L141.686 902.016L147.556 895.592L452.258 1174.02L717.823 883.389L692.125 859.907Z" fill="url(#paint3_linear_2071_12706)"/>
<path d="M407.73 914.963L566.79 740.891L571.685 745.364L412.625 919.436L407.73 914.963Z" fill="url(#paint4_linear_2071_12706)"/>
<path d="M278.499 553.244L337.203 489L342.098 493.473L283.394 557.717L278.499 553.244Z" fill="url(#paint5_linear_2071_12706)"/>
<path d="M251.442 603.743L279.396 573.15L283.067 576.505L255.113 607.097L251.442 603.743Z" fill="url(#paint6_linear_2071_12706)"/>
<path d="M99.181 778.975L125.457 750.219L128.517 753.014L102.24 781.771L99.181 778.975Z" fill="url(#paint7_linear_2071_12706)"/>
<path d="M433.534 1038.46L452.543 1017.66L455.603 1020.46L436.593 1041.26L433.534 1038.46Z" fill="url(#paint8_linear_2071_12706)"/>
<path d="M374.271 1103.32L394.398 1081.29L397.457 1084.09L377.33 1106.11L374.271 1103.32Z" fill="url(#paint9_linear_2071_12706)"/>
<path d="M375.558 1079.8L383.385 1071.23L386.445 1074.03L378.618 1082.59L375.558 1079.8Z" fill="url(#paint10_linear_2071_12706)"/>
<path d="M412.819 1138.54L420.645 1129.98L423.705 1132.77L415.878 1141.34L412.819 1138.54Z" fill="url(#paint11_linear_2071_12706)"/>
<path d="M439.739 1163.14L447.566 1154.58L450.626 1157.37L442.799 1165.94L439.739 1163.14Z" fill="url(#paint12_linear_2071_12706)"/>
<path d="M347.287 1038.24L395.623 1082.41L392.827 1085.47L344.492 1041.3L347.287 1038.24Z" fill="url(#paint13_linear_2071_12706)"/>
<path d="M328.731 1056.09L369.114 1092.99L366.318 1096.05L325.935 1059.15L328.731 1056.09Z" fill="url(#paint14_linear_2071_12706)"/>
<path d="M422.323 1128.14L452.303 1155.54L449.507 1158.6L419.527 1131.2L422.323 1128.14Z" fill="url(#paint15_linear_2071_12706)"/>
<path d="M363.819 1092.64L371.646 1084.08L374.705 1086.87L366.878 1095.44L363.819 1092.64Z" fill="url(#paint16_linear_2071_12706)"/>
<path d="M332.054 1064.74L352.181 1042.72L355.24 1045.51L335.114 1067.54L332.054 1064.74Z" fill="url(#paint17_linear_2071_12706)"/>
<path d="M357.14 1087.67L377.266 1065.64L380.326 1068.43L360.199 1090.46L357.14 1087.67Z" fill="url(#paint18_linear_2071_12706)"/>
<path d="M325.935 1059.15L346.062 1037.13L349.121 1039.92L328.995 1061.95L325.935 1059.15Z" fill="url(#paint19_linear_2071_12706)"/>
<path d="M92.4503 772.825L118.727 744.069L121.786 746.864L95.5096 775.62L92.4503 772.825Z" fill="url(#paint20_linear_2071_12706)"/>
<path d="M61.8579 744.871L88.1343 716.114L91.1935 718.91L64.917 747.666L61.8579 744.871Z" fill="url(#paint21_linear_2071_12706)"/>
<path d="M137.928 779.575L147.432 769.174L150.491 771.969L140.987 782.37L137.928 779.575Z" fill="url(#paint22_linear_2071_12706)"/>
<path d="M120.595 798.543L125.068 793.648L128.127 796.443L123.655 801.338L120.595 798.543Z" fill="url(#paint23_linear_2071_12706)"/>
<path d="M124.614 796.601L138.075 808.901L135.279 811.96L121.819 799.66L124.614 796.601Z" fill="url(#paint24_linear_2071_12706)"/>
<path d="M96.9672 860.032L142.244 901.405L141.126 902.629L95.8487 861.257L96.9672 860.032Z" fill="url(#paint25_linear_2071_12706)"/>
<path d="M57.311 735.102L98.3049 772.561L95.5096 775.62L54.5154 738.161L57.311 735.102Z" fill="url(#paint26_linear_2071_12706)"/>
<path d="M249.766 605.578L277.72 574.986L278.943 576.104L250.989 606.696L249.766 605.578Z" fill="url(#paint27_linear_2071_12706)"/>
<path fill-rule="evenodd" clip-rule="evenodd" d="M316.302 604.638C316.116 604.835 315.924 605.033 315.726 605.231L315.138 604.647C315.331 604.453 315.519 604.26 315.701 604.068L316.302 604.638ZM314.521 606.394C314.122 606.763 313.706 607.135 313.272 607.507L312.732 606.878C313.158 606.512 313.567 606.148 313.958 605.786L314.521 606.394ZM311.984 608.572C311.557 608.912 311.116 609.252 310.661 609.59L310.166 608.925C310.614 608.592 311.047 608.258 311.467 607.924L311.984 608.572ZM309.305 610.563C308.854 610.875 308.392 611.185 307.918 611.491L307.468 610.795C307.935 610.494 308.389 610.189 308.833 609.882L309.305 610.563ZM306.502 612.374C306.03 612.658 305.549 612.937 305.058 613.212L304.653 612.488C305.137 612.218 305.611 611.943 306.075 611.664L306.502 612.374ZM303.586 614.002C303.096 614.256 302.597 614.504 302.089 614.746L301.733 613.997C302.232 613.76 302.723 613.515 303.206 613.266L303.586 614.002ZM300.572 615.438C300.066 615.659 299.553 615.873 299.033 616.08L298.726 615.309C299.238 615.106 299.743 614.896 300.24 614.679L300.572 615.438ZM297.471 616.67C296.95 616.856 296.423 617.036 295.889 617.207L295.636 616.417C296.161 616.249 296.679 616.073 297.191 615.89L297.471 616.67ZM294.287 617.689C293.755 617.839 293.217 617.98 292.674 618.112L292.477 617.307C293.011 617.177 293.54 617.038 294.063 616.891L294.287 617.689ZM291.045 618.478C290.502 618.589 289.955 618.691 289.402 618.784L289.265 617.966C289.808 617.875 290.346 617.775 290.878 617.666L291.045 618.478ZM287.746 619.028C287.197 619.099 286.644 619.159 286.087 619.21L286.012 618.384C286.559 618.335 287.102 618.275 287.64 618.206L287.746 619.028ZM284.421 619.328C283.868 619.356 283.311 619.374 282.75 619.381L282.739 618.552C283.289 618.545 283.836 618.528 284.379 618.5L284.421 619.328ZM281.075 619.369C280.524 619.355 279.968 619.329 279.41 619.293L279.464 618.465C280.012 618.501 280.556 618.526 281.097 618.541L281.075 619.369ZM277.744 619.15C277.192 619.092 276.638 619.023 276.08 618.942L276.199 618.122C276.746 618.201 277.29 618.269 277.831 618.326L277.744 619.15ZM274.437 618.672C273.894 618.572 273.348 618.46 272.8 618.337L272.981 617.528C273.519 617.649 274.054 617.758 274.587 617.857L274.437 618.672ZM271.171 617.939C270.64 617.799 270.106 617.647 269.571 617.484L269.813 616.691C270.338 616.851 270.861 617 271.383 617.138L271.171 617.939ZM267.98 616.967C267.458 616.788 266.935 616.597 266.41 616.395L266.708 615.621C267.224 615.82 267.738 616.007 268.25 616.184L267.98 616.967ZM264.867 615.769C264.357 615.552 263.845 615.324 263.332 615.085L263.682 614.334C264.187 614.569 264.69 614.793 265.192 615.006L264.867 615.769ZM261.842 614.36C261.349 614.111 260.855 613.851 260.361 613.58L260.758 612.853C261.246 613.119 261.732 613.375 262.217 613.621L261.842 614.36ZM258.914 612.76C258.44 612.481 257.964 612.192 257.488 611.893L257.929 611.191C258.398 611.486 258.867 611.77 259.334 612.045L258.914 612.76ZM256.089 610.987C255.633 610.681 255.175 610.367 254.718 610.042L255.197 609.366C255.649 609.686 256.1 609.997 256.55 610.298L256.089 610.987ZM253.37 609.06C252.931 608.731 252.491 608.393 252.051 608.046L252.565 607.395C252.999 607.738 253.433 608.072 253.867 608.397L253.37 609.06ZM250.756 606.997C250.54 606.818 250.324 606.636 250.108 606.453L250.645 605.821C250.858 606.003 251.072 606.182 251.285 606.359L250.756 606.997Z" fill="url(#paint28_linear_2071_12706)"/>
<path d="M108.708 847.183L142.36 877.933L140.123 880.381L106.471 849.631L108.708 847.183Z" fill="url(#paint29_linear_2071_12706)"/>
<path d="M101.578 845.157L106.473 849.63L102 854.525L97.1052 850.052L101.578 845.157Z" fill="url(#paint30_linear_2071_12706)"/>
<path fill-rule="evenodd" clip-rule="evenodd" d="M138.065 815.067C138.262 815.253 138.46 815.445 138.659 815.643L138.075 816.231C137.879 816.038 137.686 815.851 137.495 815.668L138.065 815.067ZM139.821 816.848C140.19 817.247 140.563 817.663 140.934 818.098L140.305 818.637C139.94 818.21 139.576 817.802 139.213 817.411L139.821 816.848ZM141.999 819.385C142.339 819.813 142.679 820.253 143.017 820.708L142.352 821.202C142.02 820.755 141.686 820.321 141.35 819.903L141.999 819.385ZM143.99 822.065C144.302 822.515 144.611 822.978 144.918 823.451L144.222 823.901C143.921 823.435 143.616 822.98 143.309 822.536L143.99 822.065ZM145.801 824.867C146.085 825.339 146.363 825.821 146.639 826.311L145.915 826.715C145.645 826.233 145.37 825.758 145.091 825.294L145.801 824.867ZM147.43 827.782C147.682 828.274 147.931 828.773 148.173 829.28L147.424 829.637C147.187 829.137 146.942 828.647 146.693 828.164L147.43 827.782ZM148.864 830.798C149.086 831.303 149.3 831.816 149.507 832.336L148.737 832.642C148.533 832.131 148.322 831.627 148.106 831.129L148.864 830.798ZM150.096 833.898C150.283 834.419 150.463 834.946 150.634 835.48L149.845 835.732C149.676 835.208 149.5 834.691 149.316 834.178L150.096 833.898ZM151.116 837.082C151.266 837.614 151.407 838.152 151.539 838.696L150.734 838.892C150.604 838.358 150.465 837.83 150.318 837.306L151.116 837.082ZM151.905 840.324C152.017 840.866 152.119 841.414 152.211 841.966L151.392 842.104C151.302 841.562 151.202 841.024 151.093 840.49L151.905 840.324ZM152.456 843.623C152.526 844.172 152.587 844.724 152.637 845.283L151.812 845.356C151.762 844.809 151.703 844.267 151.633 843.729L152.456 843.623ZM152.755 846.947C152.784 847.5 152.801 848.058 152.808 848.62L151.979 848.63C151.972 848.08 151.954 847.534 151.927 846.99L152.755 846.947ZM152.796 850.294C152.781 850.846 152.756 851.401 152.719 851.959L151.893 851.905C151.929 851.357 151.953 850.813 151.968 850.272L152.796 850.294ZM152.578 853.625C152.519 854.177 152.451 854.731 152.369 855.29L151.55 855.17C151.628 854.624 151.695 854.08 151.753 853.538L152.578 853.625ZM152.098 856.933C151.999 857.476 151.887 858.022 151.765 858.569L150.956 858.388C151.076 857.85 151.185 857.315 151.285 856.781L152.098 856.933ZM151.366 860.198C151.226 860.729 151.074 861.263 150.911 861.798L150.118 861.557C150.277 861.032 150.427 860.507 150.564 859.987L151.366 860.198ZM150.394 863.39C150.215 863.911 150.024 864.434 149.821 864.959L149.048 864.661C149.247 864.145 149.434 863.632 149.61 863.12L150.394 863.39ZM149.196 866.502C148.979 867.013 148.75 867.525 148.511 868.038L147.761 867.686C147.996 867.183 148.22 866.679 148.433 866.178L149.196 866.502ZM147.787 869.527C147.538 870.02 147.277 870.514 147.006 871.009L146.279 870.611C146.546 870.124 146.803 869.637 147.048 869.152L147.787 869.527ZM146.187 872.454C145.907 872.93 145.62 873.405 145.32 873.882L144.618 873.44C144.912 872.972 145.197 872.503 145.472 872.035L146.187 872.454ZM144.413 875.28C144.109 875.737 143.793 876.194 143.469 876.652L142.793 876.172C143.113 875.721 143.423 875.27 143.725 874.819L144.413 875.28ZM142.487 877.999C142.158 878.438 141.82 878.878 141.473 879.318L140.822 878.805C141.165 878.37 141.498 877.936 141.824 877.502L142.487 877.999ZM140.424 880.614C140.245 880.829 140.064 881.045 139.88 881.261L139.249 880.724C139.43 880.511 139.608 880.298 139.786 880.084L140.424 880.614Z" fill="url(#paint31_linear_2071_12706)"/>
<path fill-rule="evenodd" clip-rule="evenodd" d="M132.845 809.71L133.392 809.111L134.004 809.671L133.457 810.27L132.845 809.71ZM130.658 812.104L131.751 810.907L132.363 811.466L131.27 812.663L130.658 812.104ZM128.471 814.497L129.564 813.3L130.176 813.859L129.083 815.056L128.471 814.497ZM126.284 816.89L127.378 815.693L127.99 816.253L126.896 817.449L126.284 816.89ZM124.097 819.283L125.191 818.087L125.803 818.646L124.709 819.842L124.097 819.283ZM121.911 821.676L123.004 820.48L123.616 821.039L122.523 822.235L121.911 821.676ZM119.722 824.071L120.817 822.873L121.429 823.432L120.334 824.63L119.722 824.071ZM117.536 826.464L118.629 825.268L119.241 825.827L118.148 827.023L117.536 826.464ZM115.349 828.857L116.442 827.661L117.054 828.22L115.961 829.416L115.349 828.857ZM113.162 831.251L114.255 830.054L114.867 830.613L113.774 831.81L113.162 831.251ZM110.975 833.644L112.069 832.447L112.681 833.006L111.587 834.203L110.975 833.644ZM108.789 836.037L109.882 834.84L110.494 835.399L109.4 836.596L108.789 836.037ZM106.602 838.43L107.695 837.233L108.307 837.793L107.214 838.989L106.602 838.43ZM104.414 840.825L105.507 839.628L106.119 840.187L105.025 841.384L104.414 840.825ZM102.227 843.218L103.32 842.021L103.932 842.58L102.839 843.777L102.227 843.218ZM100.04 845.611L101.133 844.414L101.745 844.974L100.652 846.17L100.04 845.611ZM97.8531 848.004L98.9465 846.808L99.5584 847.367L98.465 848.563L97.8531 848.004ZM96.2124 849.8L96.7598 849.201L97.3716 849.76L96.8242 850.359L96.2124 849.8Z" fill="url(#paint32_linear_2071_12706)"/>
<path fill-rule="evenodd" clip-rule="evenodd" d="M137.433 813.904L137.981 813.304L138.593 813.864L138.045 814.463L137.433 813.904ZM135.247 816.297L136.34 815.1L136.952 815.659L135.858 816.856L135.247 816.297ZM133.06 818.69L134.153 817.493L134.765 818.052L133.672 819.249L133.06 818.69ZM130.873 821.083L131.966 819.886L132.578 820.446L131.485 821.642L130.873 821.083ZM128.686 823.476L129.78 822.28L130.392 822.839L129.298 824.035L128.686 823.476ZM126.499 825.869L127.593 824.673L128.205 825.232L127.111 826.428L126.499 825.869ZM124.311 828.264L125.406 827.066L126.018 827.625L124.923 828.823L124.311 828.264ZM122.124 830.657L123.218 829.461L123.83 830.02L122.736 831.216L122.124 830.657ZM119.938 833.05L121.031 831.854L121.643 832.413L120.55 833.609L119.938 833.05ZM117.751 835.444L118.844 834.247L119.456 834.806L118.363 836.003L117.751 835.444ZM115.564 837.837L116.657 836.64L117.269 837.199L116.176 838.396L115.564 837.837ZM113.377 840.23L114.471 839.033L115.083 839.592L113.989 840.789L113.377 840.23ZM111.19 842.623L112.284 841.426L112.896 841.986L111.802 843.182L111.19 842.623ZM109.002 845.018L110.096 843.821L110.708 844.38L109.614 845.577L109.002 845.018ZM106.815 847.411L107.909 846.214L108.521 846.773L107.427 847.97L106.815 847.411ZM104.629 849.804L105.722 848.608L106.334 849.167L105.241 850.363L104.629 849.804ZM102.442 852.197L103.535 851.001L104.147 851.56L103.054 852.756L102.442 852.197ZM100.801 853.993L101.349 853.394L101.96 853.953L101.413 854.552L100.801 853.993Z" fill="url(#paint33_linear_2071_12706)"/>
<path fill-rule="evenodd" clip-rule="evenodd" d="M101.723 854.835L101.107 854.272L101.667 853.66L102.283 854.222L101.723 854.835ZM104.186 857.086L102.955 855.961L103.515 855.348L104.746 856.473L104.186 857.086ZM106.65 859.337L105.418 858.212L105.978 857.599L107.21 858.725L106.65 859.337ZM109.113 861.588L107.882 860.463L108.442 859.85L109.673 860.976L109.113 861.588ZM111.577 863.84L110.345 862.714L110.905 862.101L112.137 863.227L111.577 863.84ZM114.04 866.091L112.809 864.965L113.369 864.352L114.6 865.478L114.04 866.091ZM116.504 868.342L115.272 867.216L115.832 866.603L117.064 867.729L116.504 868.342ZM118.968 870.593L117.736 869.467L118.296 868.854L119.527 869.98L118.968 870.593ZM121.431 872.844L120.199 871.718L120.759 871.105L121.991 872.231L121.431 872.844ZM123.894 875.095L122.663 873.969L123.223 873.356L124.454 874.482L123.894 875.095ZM126.358 877.346L125.126 876.22L125.686 875.607L126.918 876.733L126.358 877.346ZM128.822 879.597L127.59 878.471L128.15 877.859L129.382 878.984L128.822 879.597ZM131.285 881.848L130.053 880.723L130.613 880.11L131.845 881.235L131.285 881.848ZM133.748 884.099L132.517 882.974L133.077 882.361L134.308 883.486L133.748 884.099ZM136.212 886.35L134.98 885.225L135.54 884.612L136.772 885.737L136.212 886.35ZM138.675 888.601L137.444 887.476L138.004 886.863L139.235 887.988L138.675 888.601ZM141.139 890.852L139.907 889.727L140.467 889.114L141.699 890.239L141.139 890.852ZM143.603 893.103L142.371 891.978L142.931 891.365L144.162 892.491L143.603 893.103ZM146.066 895.354L144.834 894.229L145.394 893.616L146.626 894.742L146.066 895.354ZM147.914 897.043L147.298 896.48L147.858 895.867L148.474 896.43L147.914 897.043Z" fill="url(#paint34_linear_2071_12706)"/>
<path d="M372.884 981.359L342.135 1015.01L339.687 1012.77L370.436 979.122L372.884 981.359Z" fill="url(#paint35_linear_2071_12706)"/>
<path fill-rule="evenodd" clip-rule="evenodd" d="M405.001 1010.71C404.815 1010.91 404.623 1011.11 404.424 1011.31L403.837 1010.72C404.029 1010.53 404.216 1010.34 404.4 1010.15L405.001 1010.71ZM403.219 1012.47C402.82 1012.84 402.404 1013.21 401.97 1013.58L401.432 1012.95C401.858 1012.59 402.266 1012.23 402.656 1011.86L403.219 1012.47ZM400.683 1014.65C400.254 1014.99 399.814 1015.33 399.359 1015.67L398.866 1015C399.312 1014.67 399.746 1014.34 400.164 1014L400.683 1014.65ZM398.003 1016.64C397.551 1016.95 397.089 1017.26 396.616 1017.57L396.168 1016.87C396.633 1016.57 397.088 1016.27 397.532 1015.96L398.003 1016.64ZM395.201 1018.45C394.729 1018.73 394.246 1019.01 393.756 1019.29L393.353 1018.56C393.834 1018.3 394.31 1018.02 394.774 1017.74L395.201 1018.45ZM392.285 1020.08C391.793 1020.33 391.294 1020.58 390.788 1020.82L390.43 1020.07C390.931 1019.84 391.421 1019.59 391.904 1019.34L392.285 1020.08ZM389.269 1021.51C388.764 1021.74 388.251 1021.95 387.731 1022.16L387.425 1021.39C387.936 1021.18 388.441 1020.97 388.938 1020.76L389.269 1021.51ZM386.169 1022.75C385.649 1022.93 385.122 1023.11 384.588 1023.28L384.335 1022.49C384.86 1022.33 385.378 1022.15 385.89 1021.97L386.169 1022.75ZM382.986 1023.77C382.453 1023.92 381.915 1024.06 381.371 1024.19L381.175 1023.38C381.71 1023.25 382.237 1023.12 382.761 1022.97L382.986 1023.77ZM379.744 1024.56C379.202 1024.67 378.654 1024.77 378.1 1024.86L377.964 1024.04C378.506 1023.95 379.044 1023.85 379.577 1023.74L379.744 1024.56ZM376.445 1025.11C375.896 1025.18 375.343 1025.24 374.784 1025.29L374.712 1024.46C375.258 1024.41 375.8 1024.35 376.339 1024.28L376.445 1025.11ZM373.121 1025.4C372.567 1025.43 372.009 1025.45 371.448 1025.46L371.437 1024.63C371.988 1024.62 372.534 1024.6 373.078 1024.58L373.121 1025.4ZM369.774 1025.45C369.221 1025.43 368.666 1025.41 368.108 1025.37L368.163 1024.54C368.71 1024.58 369.254 1024.6 369.796 1024.62L369.774 1025.45ZM366.443 1025.23C365.891 1025.17 365.337 1025.1 364.778 1025.02L364.897 1024.2C365.443 1024.28 365.987 1024.35 366.529 1024.4L366.443 1025.23ZM363.135 1024.75C362.592 1024.65 362.047 1024.54 361.499 1024.41L361.679 1023.61C362.218 1023.73 362.752 1023.84 363.287 1023.93L363.135 1024.75ZM359.869 1024.02C359.338 1023.88 358.804 1023.72 358.269 1023.56L358.512 1022.77C359.036 1022.93 359.56 1023.08 360.081 1023.21L359.869 1024.02ZM356.678 1023.04C356.157 1022.86 355.634 1022.67 355.109 1022.47L355.407 1021.7C355.923 1021.9 356.435 1022.08 356.947 1022.26L356.678 1023.04ZM353.566 1021.85C353.055 1021.63 352.543 1021.4 352.03 1021.16L352.382 1020.41C352.885 1020.65 353.389 1020.87 353.89 1021.08L353.566 1021.85ZM350.541 1020.44C350.048 1020.19 349.554 1019.93 349.058 1019.66L349.456 1018.93C349.944 1019.2 350.431 1019.45 350.915 1019.7L350.541 1020.44ZM347.613 1018.84C347.137 1018.56 346.663 1018.27 346.186 1017.97L346.627 1017.27C347.096 1017.56 347.564 1017.85 348.032 1018.12L347.613 1018.84ZM344.787 1017.06C344.331 1016.76 343.873 1016.44 343.416 1016.12L343.895 1015.44C344.346 1015.76 344.797 1016.07 345.249 1016.37L344.787 1017.06ZM342.069 1015.14C341.629 1014.81 341.189 1014.47 340.75 1014.12L341.263 1013.47C341.699 1013.81 342.131 1014.15 342.565 1014.47L342.069 1015.14ZM339.454 1013.07C339.238 1012.9 339.023 1012.71 338.807 1012.53L339.344 1011.9C339.557 1012.08 339.769 1012.26 339.984 1012.44L339.454 1013.07Z" fill="url(#paint36_linear_2071_12706)"/>
<path fill-rule="evenodd" clip-rule="evenodd" d="M408.732 1008.5L409.331 1009.05L408.771 1009.66L408.172 1009.11L408.732 1008.5ZM406.339 1006.31L407.535 1007.41L406.975 1008.02L405.779 1006.93L406.339 1006.31ZM403.945 1004.13L405.142 1005.22L404.582 1005.83L403.385 1004.74L403.945 1004.13ZM401.552 1001.94L402.749 1003.03L402.189 1003.65L400.992 1002.55L401.552 1001.94ZM399.159 999.754L400.356 1000.85L399.796 1001.46L398.599 1000.37L399.159 999.754ZM396.766 997.567L397.962 998.66L397.402 999.273L396.206 998.18L396.766 997.567ZM394.371 995.379L395.568 996.472L395.008 997.085L393.811 995.992L394.371 995.379ZM391.978 993.192L393.175 994.285L392.615 994.898L391.418 993.805L391.978 993.192ZM389.585 991.005L390.781 992.099L390.221 992.711L389.025 991.618L389.585 991.005ZM387.192 988.818L388.388 989.912L387.828 990.525L386.632 989.431L387.192 988.818ZM384.798 986.632L385.995 987.725L385.435 988.338L384.238 987.244L384.798 986.632ZM382.405 984.445L383.602 985.538L383.042 986.151L381.845 985.058L382.405 984.445ZM380.011 982.257L381.207 983.35L380.647 983.963L379.451 982.869L380.011 982.257ZM377.617 980.07L378.814 981.163L378.254 981.776L377.057 980.683L377.617 980.07ZM375.224 977.883L376.421 978.976L375.861 979.589L374.664 978.496L375.224 977.883ZM372.831 975.696L374.028 976.79L373.468 977.402L372.271 976.309L372.831 975.696ZM370.438 973.509L371.634 974.603L371.074 975.216L369.878 974.122L370.438 973.509ZM368.642 971.869L369.241 972.416L368.681 973.029L368.082 972.481L368.642 971.869Z" fill="url(#paint37_linear_2071_12706)"/>
<path fill-rule="evenodd" clip-rule="evenodd" d="M405.938 1011.56L406.535 1012.11L405.975 1012.72L405.378 1012.17L405.938 1011.56ZM403.543 1009.37L404.739 1010.47L404.18 1011.08L402.983 1009.99L403.543 1009.37ZM401.15 1007.19L402.346 1008.28L401.786 1008.89L400.59 1007.8L401.15 1007.19ZM398.757 1005L399.953 1006.09L399.393 1006.71L398.197 1005.61L398.757 1005ZM396.363 1002.81L397.56 1003.91L397 1004.52L395.803 1003.43L396.363 1002.81ZM393.97 1000.63L395.167 1001.72L394.607 1002.33L393.41 1001.24L393.97 1000.63ZM391.577 998.44L392.774 999.533L392.214 1000.15L391.017 999.052L391.577 998.44ZM389.182 996.251L390.38 997.346L389.82 997.959L388.622 996.864L389.182 996.251ZM386.789 994.065L387.986 995.158L387.426 995.771L386.229 994.677L386.789 994.065ZM384.396 991.878L385.593 992.971L385.033 993.584L383.836 992.491L384.396 991.878ZM382.003 989.691L383.199 990.784L382.639 991.397L381.443 990.304L382.003 989.691ZM379.61 987.504L380.806 988.598L380.246 989.211L379.05 988.117L379.61 987.504ZM377.216 985.318L378.413 986.411L377.853 987.024L376.656 985.93L377.216 985.318ZM374.822 983.129L376.02 984.224L375.46 984.837L374.262 983.742L374.822 983.129ZM372.429 980.943L373.625 982.036L373.065 982.649L371.869 981.555L372.429 980.943ZM370.035 978.756L371.232 979.849L370.672 980.462L369.475 979.369L370.035 978.756ZM367.642 976.569L368.839 977.662L368.279 978.275L367.082 977.182L367.642 976.569ZM365.847 974.928L366.446 975.476L365.886 976.088L365.287 975.541L365.847 974.928Z" fill="url(#paint38_linear_2071_12706)"/>
<path d="M426.33 924.096L457.079 890.445L454.631 888.208L423.882 921.859L426.33 924.096Z" fill="url(#paint39_linear_2071_12706)"/>
<path fill-rule="evenodd" clip-rule="evenodd" d="M458.456 953.443C458.636 953.24 458.815 953.031 458.995 952.816L458.36 952.284C458.184 952.494 458.009 952.698 457.833 952.896L458.456 953.443ZM460.044 951.512C460.376 951.081 460.709 950.633 461.039 950.167L460.366 949.686C460.041 950.143 459.713 950.584 459.388 951.005L460.044 951.512ZM461.985 948.788C462.286 948.334 462.584 947.863 462.88 947.379L462.174 946.947C461.881 947.423 461.589 947.884 461.294 948.333L461.985 948.788ZM463.728 945.942C463.999 945.465 464.265 944.977 464.527 944.479L463.793 944.091C463.534 944.583 463.273 945.063 463.007 945.532L463.728 945.942ZM465.279 942.987C465.52 942.492 465.754 941.988 465.983 941.474L465.226 941.136C465.001 941.642 464.769 942.139 464.534 942.626L465.279 942.987ZM466.639 939.936C466.847 939.426 467.05 938.907 467.244 938.378L466.466 938.091C466.274 938.611 466.076 939.122 465.87 939.624L466.639 939.936ZM467.798 936.806C467.97 936.282 468.138 935.751 468.297 935.215L467.503 934.98C467.346 935.507 467.184 936.029 467.011 936.544L467.798 936.806ZM468.745 933.608C468.885 933.071 469.016 932.529 469.138 931.982L468.328 931.803C468.207 932.34 468.08 932.872 467.943 933.4L468.745 933.608ZM469.473 930.344C469.574 929.801 469.668 929.253 469.75 928.7L468.93 928.575C468.849 929.118 468.759 929.659 468.659 930.192L469.473 930.344ZM469.967 927.044C470.03 926.493 470.083 925.939 470.125 925.38L469.299 925.317C469.258 925.866 469.206 926.41 469.144 926.951L469.967 927.044ZM470.219 923.71C470.239 923.156 470.251 922.6 470.252 922.041L469.422 922.04C469.422 922.589 469.412 923.135 469.392 923.678L470.219 923.71ZM470.219 920.37C470.197 919.817 470.165 919.261 470.12 918.701L469.294 918.765C469.336 919.314 469.37 919.861 469.39 920.403L470.219 920.37ZM469.959 917.034C469.895 916.487 469.82 915.937 469.732 915.382L468.913 915.512C468.999 916.053 469.073 916.595 469.135 917.131L469.959 917.034ZM469.441 913.737C469.333 913.192 469.215 912.647 469.084 912.099L468.278 912.29C468.407 912.828 468.523 913.364 468.628 913.897L469.441 913.737ZM468.667 910.487C468.519 909.953 468.358 909.419 468.186 908.886L467.398 909.139C467.566 909.663 467.723 910.188 467.87 910.709L468.667 910.487ZM467.643 907.299C467.456 906.783 467.258 906.266 467.047 905.748L466.279 906.058C466.486 906.567 466.681 907.075 466.865 907.583L467.643 907.299ZM466.389 904.209C466.162 903.705 465.926 903.2 465.677 902.696L464.935 903.063C465.178 903.558 465.412 904.054 465.633 904.548L466.389 904.209ZM464.915 901.216C464.654 900.728 464.381 900.238 464.097 899.748L463.38 900.164C463.658 900.646 463.927 901.127 464.186 901.608L464.915 901.216ZM463.242 898.33C462.947 897.862 462.646 897.393 462.33 896.925L461.642 897.387C461.951 897.846 462.249 898.309 462.538 898.769L463.242 898.33ZM461.383 895.558C461.063 895.111 460.732 894.663 460.392 894.215L459.732 894.717C460.069 895.159 460.393 895.598 460.709 896.041L461.383 895.558ZM459.363 892.905C459.017 892.476 458.664 892.05 458.3 891.622L457.668 892.161C458.029 892.582 458.379 893.003 458.718 893.423L459.363 892.905ZM457.199 890.369C456.832 889.961 456.456 889.553 456.07 889.147L455.47 889.717C455.85 890.118 456.221 890.522 456.584 890.923L457.199 890.369ZM454.91 887.952C454.712 887.751 454.512 887.552 454.309 887.355L453.729 887.947C453.929 888.141 454.127 888.339 454.324 888.535L454.91 887.952Z" fill="url(#paint40_linear_2071_12706)"/>
<path fill-rule="evenodd" clip-rule="evenodd" d="M455.468 958.584L456.066 959.13L456.626 958.517L456.028 957.971L455.468 958.584ZM453.075 956.397L454.272 957.491L454.832 956.878L453.635 955.785L453.075 956.397ZM450.68 954.209L451.877 955.303L452.437 954.69L451.24 953.596L450.68 954.209ZM448.287 952.022L449.484 953.116L450.044 952.503L448.847 951.41L448.287 952.022ZM445.894 949.836L447.091 950.929L447.651 950.316L446.454 949.223L445.894 949.836ZM443.501 947.649L444.697 948.742L445.257 948.129L444.061 947.036L443.501 947.649ZM441.108 945.462L442.304 946.556L442.864 945.943L441.668 944.849L441.108 945.462ZM438.715 943.275L439.911 944.369L440.471 943.756L439.275 942.663L438.715 943.275ZM436.32 941.087L437.518 942.182L438.078 941.569L436.88 940.474L436.32 941.087ZM433.927 938.9L435.123 939.994L435.683 939.381L434.487 938.288L433.927 938.9ZM431.533 936.714L432.73 937.807L433.29 937.194L432.093 936.101L431.533 936.714ZM429.14 934.527L430.337 935.62L430.897 935.007L429.7 933.914L429.14 934.527ZM426.747 932.34L427.944 933.433L428.504 932.821L427.307 931.727L426.747 932.34ZM424.354 930.153L425.551 931.247L426.111 930.634L424.914 929.54L424.354 930.153ZM421.959 927.965L423.157 929.06L423.717 928.447L422.519 927.352L421.959 927.965ZM419.566 925.778L420.763 926.872L421.323 926.259L420.126 925.165L419.566 925.778ZM417.173 923.591L418.37 924.685L418.929 924.072L417.733 922.979L417.173 923.591ZM415.379 921.952L415.976 922.498L416.536 921.885L415.939 921.339L415.379 921.952Z" fill="url(#paint41_linear_2071_12706)"/>
<path fill-rule="evenodd" clip-rule="evenodd" d="M459.382 954.301L459.981 954.848L460.541 954.235L459.942 953.688L459.382 954.301ZM456.989 952.114L458.186 953.207L458.746 952.594L457.549 951.501L456.989 952.114ZM454.596 949.927L455.793 951.021L456.353 950.408L455.156 949.314L454.596 949.927ZM452.203 947.74L453.4 948.834L453.959 948.221L452.763 947.128L452.203 947.74ZM449.81 945.554L451.006 946.647L451.566 946.034L450.37 944.941L449.81 945.554ZM447.415 943.365L448.612 944.459L449.172 943.846L447.975 942.753L447.415 943.365ZM445.022 941.179L446.218 942.272L446.778 941.659L445.582 940.566L445.022 941.179ZM442.629 938.992L443.825 940.085L444.385 939.472L443.189 938.379L442.629 938.992ZM440.236 936.805L441.432 937.898L441.992 937.286L440.796 936.192L440.236 936.805ZM437.842 934.618L439.039 935.712L439.599 935.099L438.402 934.005L437.842 934.618ZM435.449 932.431L436.646 933.525L437.206 932.912L436.009 931.819L435.449 932.431ZM433.055 930.243L434.253 931.338L434.813 930.725L433.614 929.63L433.055 930.243ZM430.661 928.056L431.858 929.15L432.418 928.537L431.221 927.444L430.661 928.056ZM428.268 925.87L429.465 926.963L430.025 926.35L428.828 925.257L428.268 925.87ZM425.875 923.683L427.072 924.776L427.632 924.163L426.435 923.07L425.875 923.683ZM423.482 921.496L424.678 922.589L425.238 921.977L424.042 920.883L423.482 921.496ZM421.089 919.309L422.285 920.403L422.845 919.79L421.649 918.696L421.089 919.309ZM419.293 917.668L419.892 918.216L420.452 917.603L419.853 917.056L419.293 917.668Z" fill="url(#paint42_linear_2071_12706)"/>
<path d="M133.444 810.283L159.72 781.527L164.615 786L138.339 814.756L133.444 810.283Z" fill="url(#paint43_linear_2071_12706)"/>
<path d="M213.575 870.033L233.143 848.618L238.038 853.091L218.47 874.505L213.575 870.033Z" fill="url(#paint44_linear_2071_12706)"/>
<path d="M297.896 1035.78L361.631 966.026L366.526 970.499L302.791 1040.25L297.896 1035.78Z" fill="url(#paint45_linear_2071_12706)"/>
<path d="M414.862 1014.67L465.739 958.987L470.634 963.46L419.757 1019.14L414.862 1014.67Z" fill="url(#paint46_linear_2071_12706)"/>
<path d="M441.911 989.981L539.806 1079.43L530.861 1089.22L432.965 999.77L441.911 989.981Z" fill="url(#paint47_linear_2071_12706)"/>
<path d="M161.263 789.669L78.0512 713.634L82.5239 708.739L165.735 784.774L161.263 789.669Z" fill="url(#paint48_linear_2071_12706)"/>
<path d="M369.904 980.318L229.79 852.287L234.263 847.392L374.376 975.423L369.904 980.318Z" fill="url(#paint49_linear_2071_12706)"/>
<path d="M419.662 925.863L410.485 917.478L414.958 912.583L424.135 920.968L419.662 925.863Z" fill="url(#paint50_linear_2071_12706)"/>
<path d="M466.163 968.353L453.926 957.172L458.399 952.278L470.635 963.459L466.163 968.353Z" fill="url(#paint51_linear_2071_12706)"/>
<path d="M416.404 1022.81L404.168 1011.63L408.64 1006.73L420.877 1017.91L416.404 1022.81Z" fill="url(#paint52_linear_2071_12706)"/>
<path d="M446.504 610.207L713.882 854.528L709.41 859.422L442.032 615.102L446.504 610.207Z" fill="url(#paint53_linear_2071_12706)"/>
<path d="M337.203 489L462.02 603.053L457.547 607.948L332.73 493.895L337.203 489Z" fill="url(#paint54_linear_2071_12706)"/>
<path fill-rule="evenodd" clip-rule="evenodd" d="M602.42 782.99L608.85 775.954L608.238 775.396L601.25 783.044L694.863 868.584L700.734 862.16L700.121 861.6L694.81 867.412L602.42 782.99Z" fill="url(#paint55_linear_2071_12706)"/>
<path fill-rule="evenodd" clip-rule="evenodd" d="M441.505 635.951L447.934 628.915L447.321 628.355L440.333 636.003L533.946 721.544L539.816 715.119L539.205 714.561L533.894 720.373L441.505 635.951Z" fill="url(#paint56_linear_2071_12706)"/>
<path fill-rule="evenodd" clip-rule="evenodd" d="M326.783 596.242L288.236 561.019L288.795 560.407L327.342 595.63L326.783 596.242Z" fill="url(#paint57_linear_2071_12706)"/>
<path fill-rule="evenodd" clip-rule="evenodd" d="M320.913 602.666L282.366 567.443L282.925 566.831L321.472 602.054L320.913 602.666Z" fill="url(#paint58_linear_2071_12706)"/>
<path fill-rule="evenodd" clip-rule="evenodd" d="M317.558 606.337L279.011 571.115L279.571 570.503L318.117 605.725L317.558 606.337Z" fill="url(#paint59_linear_2071_12706)"/>
<path fill-rule="evenodd" clip-rule="evenodd" d="M283.268 574.442L286.622 570.771L287.234 571.33L283.879 575.001L283.268 574.442Z" fill="url(#paint60_linear_2071_12706)"/>
<path fill-rule="evenodd" clip-rule="evenodd" d="M313.249 601.838L316.604 598.167L317.215 598.726L313.861 602.397L313.249 601.838Z" fill="url(#paint61_linear_2071_12706)"/>
<path fill-rule="evenodd" clip-rule="evenodd" d="M270.983 581.743L308 615.568L307.441 616.179L270.424 582.355L270.983 581.743Z" fill="url(#paint62_linear_2071_12706)"/>
<path d="M1621.98 93.913L1602.41 72.4983L1652.89 26.3736L1893.02 289.163L1801.54 372.746L1798.75 369.687L1796.3 371.923L1790.43 365.499L1873.03 290.022L1661.14 58.1314L1621.98 93.913Z" fill="url(#paint63_linear_2071_12706)"/>
<path d="M1506.96 159.716L1566.92 104.925L1586.19 126.62L1510.32 195.946L1456.64 137.209L1444.41 148.39L1421.2 122.998L1449.66 97.0012L1506.96 159.716Z" fill="url(#paint64_linear_2071_12706)"/>
<path d="M1362.11 223.587L1338.91 198.195L1259.37 270.878L1282.57 296.27L1362.11 223.587Z" fill="url(#paint65_linear_2071_12706)"/>
<path d="M1200.89 370.907L1177.69 345.515L1142.2 377.943L1439.63 703.447L1751.68 418.312L1748.88 415.253L1751.33 413.016L1745.46 406.592L1440.76 685.017L1175.19 394.389L1200.89 370.907Z" fill="url(#paint66_linear_2071_12706)"/>
<path d="M1485.29 425.963L1326.23 251.891L1321.33 256.364L1480.39 430.436L1485.29 425.963Z" fill="url(#paint67_linear_2071_12706)"/>
<path d="M1614.52 64.2442L1555.81 0L1550.92 4.47274L1609.62 68.7169L1614.52 64.2442Z" fill="url(#paint68_linear_2071_12706)"/>
<path d="M1641.57 114.743L1613.62 84.1502L1609.95 87.5049L1637.9 118.097L1641.57 114.743Z" fill="url(#paint69_linear_2071_12706)"/>
<path d="M1793.83 289.975L1767.56 261.219L1764.5 264.014L1790.78 292.771L1793.83 289.975Z" fill="url(#paint70_linear_2071_12706)"/>
<path d="M1459.48 549.463L1440.47 528.66L1437.41 531.456L1456.42 552.259L1459.48 549.463Z" fill="url(#paint71_linear_2071_12706)"/>
<path d="M1518.74 614.319L1498.62 592.293L1495.56 595.089L1515.68 617.115L1518.74 614.319Z" fill="url(#paint72_linear_2071_12706)"/>
<path d="M1517.46 590.796L1509.63 582.23L1506.57 585.026L1514.4 593.592L1517.46 590.796Z" fill="url(#paint73_linear_2071_12706)"/>
<path d="M1480.2 649.542L1472.37 640.977L1469.31 643.772L1477.14 652.338L1480.2 649.542Z" fill="url(#paint74_linear_2071_12706)"/>
<path d="M1453.28 674.142L1445.45 665.576L1442.39 668.372L1450.22 676.937L1453.28 674.142Z" fill="url(#paint75_linear_2071_12706)"/>
<path d="M1545.73 549.243L1497.39 593.41L1500.19 596.469L1548.52 552.302L1545.73 549.243Z" fill="url(#paint76_linear_2071_12706)"/>
<path d="M1564.28 567.092L1523.9 603.993L1526.7 607.052L1567.08 570.152L1564.28 567.092Z" fill="url(#paint77_linear_2071_12706)"/>
<path d="M1470.69 639.141L1440.71 666.536L1443.51 669.596L1473.49 642.201L1470.69 639.141Z" fill="url(#paint78_linear_2071_12706)"/>
<path d="M1529.2 603.644L1521.37 595.078L1518.31 597.874L1526.14 606.439L1529.2 603.644Z" fill="url(#paint79_linear_2071_12706)"/>
<path d="M1560.96 575.743L1540.83 553.717L1537.78 556.513L1557.9 578.539L1560.96 575.743Z" fill="url(#paint80_linear_2071_12706)"/>
<path d="M1535.88 598.665L1515.75 576.639L1512.69 579.435L1532.82 601.461L1535.88 598.665Z" fill="url(#paint81_linear_2071_12706)"/>
<path d="M1567.08 570.152L1546.95 548.126L1543.89 550.921L1564.02 572.947L1567.08 570.152Z" fill="url(#paint82_linear_2071_12706)"/>
<path d="M1800.57 283.825L1774.29 255.069L1771.23 257.864L1797.51 286.62L1800.57 283.825Z" fill="url(#paint83_linear_2071_12706)"/>
<path d="M1831.16 255.871L1804.88 227.114L1801.82 229.91L1828.1 258.666L1831.16 255.871Z" fill="url(#paint84_linear_2071_12706)"/>
<path d="M1755.09 290.575L1745.58 280.174L1742.52 282.969L1752.03 293.37L1755.09 290.575Z" fill="url(#paint85_linear_2071_12706)"/>
<path d="M1772.42 309.543L1767.95 304.648L1764.89 307.443L1769.36 312.338L1772.42 309.543Z" fill="url(#paint86_linear_2071_12706)"/>
<path d="M1768.4 307.601L1754.94 319.901L1757.74 322.96L1771.2 310.66L1768.4 307.601Z" fill="url(#paint87_linear_2071_12706)"/>
<path d="M1796.05 371.032L1750.77 412.405L1751.89 413.629L1797.17 372.257L1796.05 371.032Z" fill="url(#paint88_linear_2071_12706)"/>
<path d="M1835.7 246.102L1794.71 283.561L1797.51 286.62L1838.5 249.161L1835.7 246.102Z" fill="url(#paint89_linear_2071_12706)"/>
<path d="M1643.25 116.578L1615.3 85.9856L1614.07 87.1037L1642.03 117.696L1643.25 116.578Z" fill="url(#paint90_linear_2071_12706)"/>
<path fill-rule="evenodd" clip-rule="evenodd" d="M1576.71 115.638C1576.9 115.835 1577.09 116.033 1577.29 116.231L1577.88 115.647C1577.68 115.453 1577.5 115.26 1577.31 115.068L1576.71 115.638ZM1578.49 117.394C1578.89 117.763 1579.31 118.135 1579.74 118.507L1580.28 117.878C1579.86 117.512 1579.45 117.148 1579.06 116.786L1578.49 117.394ZM1581.03 119.572C1581.46 119.912 1581.9 120.252 1582.35 120.59L1582.85 119.925C1582.4 119.592 1581.97 119.258 1581.55 118.924L1581.03 119.572ZM1583.71 121.563C1584.16 121.875 1584.62 122.185 1585.1 122.491L1585.55 121.795C1585.08 121.494 1584.63 121.189 1584.18 120.882L1583.71 121.563ZM1586.51 123.374C1586.99 123.658 1587.47 123.937 1587.96 124.212L1588.36 123.488C1587.88 123.218 1587.4 122.943 1586.94 122.664L1586.51 123.374ZM1589.43 125.002C1589.92 125.256 1590.42 125.504 1590.93 125.746L1591.28 124.997C1590.78 124.76 1590.29 124.515 1589.81 124.266L1589.43 125.002ZM1592.44 126.438C1592.95 126.659 1593.46 126.873 1593.98 127.08L1594.29 126.309C1593.78 126.106 1593.27 125.896 1592.78 125.679L1592.44 126.438ZM1595.54 127.67C1596.07 127.856 1596.59 128.036 1597.13 128.207L1597.38 127.417C1596.85 127.249 1596.34 127.073 1595.82 126.89L1595.54 127.67ZM1598.73 128.689C1599.26 128.839 1599.8 128.98 1600.34 129.112L1600.54 128.307C1600 128.177 1599.48 128.038 1598.95 127.891L1598.73 128.689ZM1601.97 129.478C1602.51 129.589 1603.06 129.691 1603.61 129.784L1603.75 128.966C1603.21 128.875 1602.67 128.775 1602.14 128.666L1601.97 129.478ZM1605.27 130.028C1605.82 130.099 1606.37 130.159 1606.93 130.21L1607 129.384C1606.46 129.335 1605.91 129.275 1605.38 129.206L1605.27 130.028ZM1608.59 130.328C1609.15 130.356 1609.7 130.374 1610.27 130.381L1610.28 129.552C1609.73 129.545 1609.18 129.528 1608.64 129.5L1608.59 130.328ZM1611.94 130.369C1612.49 130.355 1613.05 130.329 1613.61 130.293L1613.55 129.465C1613 129.501 1612.46 129.526 1611.92 129.541L1611.94 130.369ZM1615.27 130.15C1615.82 130.092 1616.38 130.023 1616.94 129.942L1616.82 129.122C1616.27 129.201 1615.73 129.269 1615.18 129.326L1615.27 130.15ZM1618.58 129.672C1619.12 129.572 1619.67 129.46 1620.22 129.337L1620.03 128.528C1619.5 128.649 1618.96 128.758 1618.43 128.857L1618.58 129.672ZM1621.84 128.939C1622.38 128.799 1622.91 128.647 1623.44 128.484L1623.2 127.691C1622.68 127.851 1622.15 128 1621.63 128.138L1621.84 128.939ZM1625.04 127.967C1625.56 127.788 1626.08 127.597 1626.61 127.395L1626.31 126.621C1625.79 126.82 1625.28 127.007 1624.77 127.184L1625.04 127.967ZM1628.15 126.769C1628.66 126.552 1629.17 126.324 1629.68 126.085L1629.33 125.334C1628.83 125.569 1628.33 125.793 1627.82 126.006L1628.15 126.769ZM1631.17 125.36C1631.67 125.111 1632.16 124.851 1632.65 124.58L1632.26 123.853C1631.77 124.119 1631.28 124.375 1630.8 124.621L1631.17 125.36ZM1634.1 123.76C1634.58 123.481 1635.05 123.192 1635.53 122.893L1635.09 122.191C1634.62 122.486 1634.15 122.77 1633.68 123.045L1634.1 123.76ZM1636.93 121.987C1637.38 121.681 1637.84 121.367 1638.3 121.042L1637.82 120.366C1637.37 120.686 1636.92 120.997 1636.47 121.298L1636.93 121.987ZM1639.65 120.06C1640.08 119.731 1640.52 119.393 1640.96 119.046L1640.45 118.395C1640.02 118.738 1639.58 119.072 1639.15 119.397L1639.65 120.06ZM1642.26 117.997C1642.48 117.818 1642.69 117.636 1642.91 117.453L1642.37 116.821C1642.16 117.003 1641.94 117.182 1641.73 117.359L1642.26 117.997Z" fill="url(#paint91_linear_2071_12706)"/>
<path d="M1784.31 358.183L1750.66 388.933L1752.89 391.381L1786.54 360.631L1784.31 358.183Z" fill="url(#paint92_linear_2071_12706)"/>
<path d="M1791.44 356.157L1786.54 360.63L1791.02 365.525L1795.91 361.052L1791.44 356.157Z" fill="url(#paint93_linear_2071_12706)"/>
<path fill-rule="evenodd" clip-rule="evenodd" d="M1754.95 326.067C1754.75 326.253 1754.56 326.445 1754.36 326.643L1754.94 327.231C1755.14 327.038 1755.33 326.851 1755.52 326.668L1754.95 326.067ZM1753.19 327.848C1752.83 328.247 1752.45 328.663 1752.08 329.098L1752.71 329.637C1753.08 329.21 1753.44 328.802 1753.8 328.411L1753.19 327.848ZM1751.02 330.385C1750.68 330.813 1750.34 331.253 1750 331.708L1750.66 332.202C1751 331.755 1751.33 331.321 1751.67 330.903L1751.02 330.385ZM1749.03 333.065C1748.71 333.515 1748.4 333.978 1748.1 334.451L1748.79 334.901C1749.09 334.435 1749.4 333.98 1749.71 333.536L1749.03 333.065ZM1747.21 335.867C1746.93 336.339 1746.65 336.821 1746.38 337.311L1747.1 337.715C1747.37 337.233 1747.64 336.758 1747.92 336.294L1747.21 335.867ZM1745.59 338.782C1745.33 339.274 1745.08 339.773 1744.84 340.28L1745.59 340.637C1745.83 340.137 1746.07 339.647 1746.32 339.164L1745.59 338.782ZM1744.15 341.798C1743.93 342.303 1743.72 342.816 1743.51 343.336L1744.28 343.642C1744.48 343.131 1744.69 342.627 1744.91 342.129L1744.15 341.798ZM1742.92 344.898C1742.73 345.419 1742.55 345.946 1742.38 346.48L1743.17 346.732C1743.34 346.208 1743.52 345.691 1743.7 345.178L1742.92 344.898ZM1741.9 348.082C1741.75 348.614 1741.61 349.152 1741.48 349.696L1742.28 349.892C1742.41 349.358 1742.55 348.83 1742.7 348.306L1741.9 348.082ZM1741.11 351.324C1741 351.866 1740.9 352.414 1740.8 352.966L1741.62 353.104C1741.71 352.562 1741.81 352.024 1741.92 351.49L1741.11 351.324ZM1740.56 354.623C1740.49 355.172 1740.43 355.724 1740.38 356.283L1741.2 356.356C1741.25 355.809 1741.31 355.267 1741.38 354.729L1740.56 354.623ZM1740.26 357.947C1740.23 358.5 1740.21 359.058 1740.21 359.62L1741.04 359.63C1741.04 359.08 1741.06 358.534 1741.09 357.99L1740.26 357.947ZM1740.22 361.294C1740.23 361.846 1740.26 362.401 1740.3 362.959L1741.12 362.905C1741.09 362.357 1741.06 361.813 1741.05 361.272L1740.22 361.294ZM1740.44 364.625C1740.5 365.177 1740.56 365.731 1740.65 366.29L1741.47 366.17C1741.39 365.624 1741.32 365.08 1741.26 364.538L1740.44 364.625ZM1740.92 367.933C1741.02 368.476 1741.13 369.022 1741.25 369.569L1742.06 369.388C1741.94 368.85 1741.83 368.315 1741.73 367.781L1740.92 367.933ZM1741.65 371.198C1741.79 371.729 1741.94 372.263 1742.1 372.798L1742.9 372.557C1742.74 372.032 1742.59 371.507 1742.45 370.987L1741.65 371.198ZM1742.62 374.39C1742.8 374.911 1742.99 375.434 1743.19 375.959L1743.97 375.661C1743.77 375.145 1743.58 374.632 1743.41 374.12L1742.62 374.39ZM1743.82 377.502C1744.04 378.013 1744.26 378.525 1744.5 379.038L1745.25 378.686C1745.02 378.183 1744.79 377.679 1744.58 377.178L1743.82 377.502ZM1745.23 380.527C1745.48 381.02 1745.74 381.514 1746.01 382.009L1746.74 381.611C1746.47 381.124 1746.21 380.637 1745.97 380.152L1745.23 380.527ZM1746.83 383.454C1747.11 383.93 1747.4 384.405 1747.7 384.882L1748.4 384.44C1748.1 383.972 1747.82 383.503 1747.54 383.035L1746.83 383.454ZM1748.6 386.28C1748.91 386.737 1749.22 387.194 1749.55 387.652L1750.22 387.172C1749.9 386.721 1749.59 386.27 1749.29 385.819L1748.6 386.28ZM1750.53 388.999C1750.86 389.438 1751.2 389.878 1751.54 390.318L1752.19 389.805C1751.85 389.37 1751.52 388.936 1751.19 388.502L1750.53 388.999ZM1752.59 391.614C1752.77 391.829 1752.95 392.045 1753.14 392.261L1753.77 391.724C1753.59 391.511 1753.41 391.298 1753.23 391.084L1752.59 391.614Z" fill="url(#paint94_linear_2071_12706)"/>
<path fill-rule="evenodd" clip-rule="evenodd" d="M1760.17 320.71L1759.62 320.111L1759.01 320.671L1759.56 321.27L1760.17 320.71ZM1762.36 323.104L1761.26 321.907L1760.65 322.466L1761.75 323.663L1762.36 323.104ZM1764.54 325.497L1763.45 324.3L1762.84 324.859L1763.93 326.056L1764.54 325.497ZM1766.73 327.89L1765.64 326.693L1765.03 327.253L1766.12 328.449L1766.73 327.89ZM1768.92 330.283L1767.82 329.087L1767.21 329.646L1768.31 330.842L1768.92 330.283ZM1771.1 332.676L1770.01 331.48L1769.4 332.039L1770.49 333.235L1771.1 332.676ZM1773.29 335.071L1772.2 333.873L1771.59 334.432L1772.68 335.63L1773.29 335.071ZM1775.48 337.464L1774.39 336.268L1773.77 336.827L1774.87 338.023L1775.48 337.464ZM1777.67 339.857L1776.57 338.661L1775.96 339.22L1777.05 340.416L1777.67 339.857ZM1779.85 342.251L1778.76 341.054L1778.15 341.613L1779.24 342.81L1779.85 342.251ZM1782.04 344.644L1780.95 343.447L1780.33 344.006L1781.43 345.203L1782.04 344.644ZM1784.23 347.037L1783.13 345.84L1782.52 346.399L1783.61 347.596L1784.23 347.037ZM1786.41 349.43L1785.32 348.233L1784.71 348.793L1785.8 349.989L1786.41 349.43ZM1788.6 351.825L1787.51 350.628L1786.9 351.187L1787.99 352.384L1788.6 351.825ZM1790.79 354.218L1789.7 353.021L1789.08 353.58L1790.18 354.777L1790.79 354.218ZM1792.98 356.611L1791.88 355.414L1791.27 355.974L1792.36 357.17L1792.98 356.611ZM1795.16 359.004L1794.07 357.808L1793.46 358.367L1794.55 359.563L1795.16 359.004ZM1796.8 360.8L1796.26 360.201L1795.64 360.76L1796.19 361.359L1796.8 360.8Z" fill="url(#paint95_linear_2071_12706)"/>
<path fill-rule="evenodd" clip-rule="evenodd" d="M1755.58 324.904L1755.03 324.304L1754.42 324.864L1754.97 325.463L1755.58 324.904ZM1757.77 327.297L1756.68 326.1L1756.06 326.659L1757.16 327.856L1757.77 327.297ZM1759.96 329.69L1758.86 328.493L1758.25 329.052L1759.34 330.249L1759.96 329.69ZM1762.14 332.083L1761.05 330.886L1760.44 331.446L1761.53 332.642L1762.14 332.083ZM1764.33 334.476L1763.24 333.28L1762.62 333.839L1763.72 335.035L1764.33 334.476ZM1766.52 336.869L1765.42 335.673L1764.81 336.232L1765.9 337.428L1766.52 336.869ZM1768.7 339.264L1767.61 338.066L1767 338.625L1768.09 339.823L1768.7 339.264ZM1770.89 341.657L1769.8 340.461L1769.19 341.02L1770.28 342.216L1770.89 341.657ZM1773.08 344.05L1771.98 342.854L1771.37 343.413L1772.47 344.609L1773.08 344.05ZM1775.26 346.444L1774.17 345.247L1773.56 345.806L1774.65 347.003L1775.26 346.444ZM1777.45 348.837L1776.36 347.64L1775.75 348.199L1776.84 349.396L1777.45 348.837ZM1779.64 351.23L1778.54 350.033L1777.93 350.592L1779.03 351.789L1779.64 351.23ZM1781.82 353.623L1780.73 352.426L1780.12 352.986L1781.21 354.182L1781.82 353.623ZM1784.01 356.018L1782.92 354.821L1782.31 355.38L1783.4 356.577L1784.01 356.018ZM1786.2 358.411L1785.11 357.214L1784.49 357.773L1785.59 358.97L1786.2 358.411ZM1788.39 360.804L1787.29 359.608L1786.68 360.167L1787.77 361.363L1788.39 360.804ZM1790.57 363.197L1789.48 362.001L1788.87 362.56L1789.96 363.756L1790.57 363.197ZM1792.21 364.993L1791.67 364.394L1791.06 364.953L1791.6 365.552L1792.21 364.993Z" fill="url(#paint96_linear_2071_12706)"/>
<path fill-rule="evenodd" clip-rule="evenodd" d="M1791.29 365.835L1791.91 365.272L1791.35 364.66L1790.73 365.222L1791.29 365.835ZM1788.83 368.086L1790.06 366.961L1789.5 366.348L1788.27 367.473L1788.83 368.086ZM1786.37 370.337L1787.6 369.212L1787.04 368.599L1785.81 369.725L1786.37 370.337ZM1783.9 372.588L1785.13 371.463L1784.57 370.85L1783.34 371.976L1783.9 372.588ZM1781.44 374.84L1782.67 373.714L1782.11 373.101L1780.88 374.227L1781.44 374.84ZM1778.98 377.091L1780.21 375.965L1779.65 375.352L1778.42 376.478L1778.98 377.091ZM1776.51 379.342L1777.74 378.216L1777.18 377.603L1775.95 378.729L1776.51 379.342ZM1774.05 381.593L1775.28 380.467L1774.72 379.854L1773.49 380.98L1774.05 381.593ZM1771.58 383.844L1772.82 382.718L1772.26 382.105L1771.02 383.231L1771.58 383.844ZM1769.12 386.095L1770.35 384.969L1769.79 384.356L1768.56 385.482L1769.12 386.095ZM1766.66 388.346L1767.89 387.22L1767.33 386.607L1766.1 387.733L1766.66 388.346ZM1764.19 390.597L1765.43 389.471L1764.87 388.859L1763.63 389.984L1764.19 390.597ZM1761.73 392.848L1762.96 391.723L1762.4 391.11L1761.17 392.235L1761.73 392.848ZM1759.27 395.099L1760.5 393.974L1759.94 393.361L1758.71 394.486L1759.27 395.099ZM1756.8 397.35L1758.04 396.225L1757.48 395.612L1756.24 396.737L1756.8 397.35ZM1754.34 399.601L1755.57 398.476L1755.01 397.863L1753.78 398.988L1754.34 399.601ZM1751.88 401.852L1753.11 400.727L1752.55 400.114L1751.32 401.239L1751.88 401.852ZM1749.41 404.103L1750.64 402.978L1750.08 402.365L1748.85 403.491L1749.41 404.103ZM1746.95 406.354L1748.18 405.229L1747.62 404.616L1746.39 405.742L1746.95 406.354ZM1745.1 408.043L1745.72 407.48L1745.16 406.867L1744.54 407.43L1745.1 408.043Z" fill="url(#paint97_linear_2071_12706)"/>
<path d="M1520.13 492.359L1550.88 526.01L1553.33 523.773L1522.58 490.122L1520.13 492.359Z" fill="url(#paint98_linear_2071_12706)"/>
<path fill-rule="evenodd" clip-rule="evenodd" d="M1488.01 521.715C1488.2 521.912 1488.39 522.11 1488.59 522.309L1489.18 521.725C1488.99 521.53 1488.8 521.337 1488.62 521.145L1488.01 521.715ZM1489.8 523.471C1490.2 523.841 1490.61 524.213 1491.05 524.584L1491.58 523.955C1491.16 523.59 1490.75 523.225 1490.36 522.864L1489.8 523.471ZM1492.33 525.649C1492.76 525.989 1493.2 526.33 1493.66 526.668L1494.15 526.002C1493.7 525.669 1493.27 525.336 1492.85 525.001L1492.33 525.649ZM1495.01 527.639C1495.46 527.952 1495.93 528.262 1496.4 528.568L1496.85 527.871C1496.38 527.57 1495.93 527.266 1495.48 526.958L1495.01 527.639ZM1497.81 529.45C1498.29 529.734 1498.77 530.014 1499.26 530.289L1499.66 529.564C1499.18 529.295 1498.71 529.02 1498.24 528.74L1497.81 529.45ZM1500.73 531.079C1501.22 531.333 1501.72 531.581 1502.23 531.822L1502.59 531.075C1502.08 530.837 1501.59 530.592 1501.11 530.343L1500.73 531.079ZM1503.75 532.515C1504.25 532.735 1504.76 532.951 1505.28 533.157L1505.59 532.387C1505.08 532.184 1504.57 531.972 1504.08 531.756L1503.75 532.515ZM1506.85 533.746C1507.37 533.932 1507.89 534.113 1508.43 534.283L1508.68 533.495C1508.16 533.326 1507.64 533.149 1507.13 532.966L1506.85 533.746ZM1510.03 534.766C1510.56 534.916 1511.1 535.057 1511.64 535.189L1511.84 534.384C1511.31 534.253 1510.78 534.115 1510.25 533.969L1510.03 534.766ZM1513.27 535.555C1513.81 535.666 1514.36 535.768 1514.92 535.859L1515.05 535.042C1514.51 534.952 1513.97 534.851 1513.44 534.744L1513.27 535.555ZM1516.57 536.105C1517.12 536.176 1517.67 536.237 1518.23 536.287L1518.3 535.461C1517.76 535.413 1517.22 535.353 1516.68 535.282L1516.57 536.105ZM1519.89 536.405C1520.45 536.434 1521.01 536.452 1521.57 536.458L1521.58 535.629C1521.03 535.622 1520.48 535.605 1519.94 535.577L1519.89 536.405ZM1523.24 536.446C1523.79 536.431 1524.35 536.406 1524.91 536.37L1524.85 535.542C1524.31 535.579 1523.76 535.603 1523.22 535.618L1523.24 536.446ZM1526.57 536.228C1527.12 536.169 1527.68 536.1 1528.24 536.019L1528.12 535.2C1527.57 535.278 1527.03 535.346 1526.49 535.403L1526.57 536.228ZM1529.88 535.748C1530.42 535.648 1530.97 535.537 1531.52 535.415L1531.34 534.607C1530.8 534.726 1530.26 534.835 1529.73 534.934L1529.88 535.748ZM1533.15 535.016C1533.68 534.876 1534.21 534.724 1534.75 534.561L1534.5 533.768C1533.98 533.927 1533.46 534.078 1532.93 534.214L1533.15 535.016ZM1536.34 534.044C1536.86 533.865 1537.38 533.673 1537.91 533.471L1537.61 532.697C1537.09 532.897 1536.58 533.084 1536.07 533.261L1536.34 534.044ZM1539.45 532.846C1539.96 532.629 1540.47 532.4 1540.99 532.161L1540.63 531.411C1540.13 531.646 1539.63 531.871 1539.12 532.083L1539.45 532.846ZM1542.47 531.436C1542.97 531.188 1543.46 530.927 1543.96 530.656L1543.56 529.929C1543.07 530.196 1542.58 530.452 1542.1 530.699L1542.47 531.436ZM1545.4 529.838C1545.88 529.557 1546.35 529.27 1546.83 528.969L1546.39 528.269C1545.92 528.563 1545.45 528.848 1544.98 529.122L1545.4 529.838ZM1548.23 528.063C1548.68 527.759 1549.14 527.444 1549.6 527.118L1549.12 526.443C1548.67 526.763 1548.22 527.074 1547.77 527.374L1548.23 528.063ZM1550.95 526.137C1551.39 525.808 1551.83 525.471 1552.27 525.123L1551.75 524.472C1551.32 524.815 1550.88 525.148 1550.45 525.475L1550.95 526.137ZM1553.56 524.073C1553.78 523.895 1553.99 523.713 1554.21 523.53L1553.67 522.899C1553.46 523.08 1553.25 523.259 1553.03 523.435L1553.56 524.073Z" fill="url(#paint99_linear_2071_12706)"/>
<path fill-rule="evenodd" clip-rule="evenodd" d="M1484.28 519.501L1483.68 520.048L1484.24 520.661L1484.84 520.114L1484.28 519.501ZM1486.68 517.314L1485.48 518.408L1486.04 519.02L1487.24 517.927L1486.68 517.314ZM1489.07 515.127L1487.87 516.221L1488.43 516.834L1489.63 515.74L1489.07 515.127ZM1491.46 512.941L1490.27 514.034L1490.83 514.647L1492.02 513.553L1491.46 512.941ZM1493.86 510.754L1492.66 511.847L1493.22 512.46L1494.42 511.367L1493.86 510.754ZM1496.25 508.567L1495.05 509.66L1495.61 510.273L1496.81 509.18L1496.25 508.567ZM1498.64 506.379L1497.45 507.472L1498.01 508.085L1499.2 506.992L1498.64 506.379ZM1501.04 504.192L1499.84 505.285L1500.4 505.898L1501.6 504.805L1501.04 504.192ZM1503.43 502.005L1502.23 503.099L1502.79 503.711L1503.99 502.618L1503.43 502.005ZM1505.82 499.818L1504.63 500.912L1505.19 501.525L1506.38 500.431L1505.82 499.818ZM1508.22 497.632L1507.02 498.725L1507.58 499.338L1508.78 498.244L1508.22 497.632ZM1510.61 495.445L1509.41 496.538L1509.97 497.151L1511.17 496.058L1510.61 495.445ZM1513 493.257L1511.81 494.35L1512.37 494.963L1513.56 493.869L1513 493.257ZM1515.4 491.07L1514.2 492.163L1514.76 492.776L1515.96 491.683L1515.4 491.07ZM1517.79 488.883L1516.59 489.976L1517.15 490.589L1518.35 489.496L1517.79 488.883ZM1520.18 486.696L1518.99 487.79L1519.55 488.402L1520.74 487.309L1520.18 486.696ZM1522.58 484.509L1521.38 485.603L1521.94 486.216L1523.14 485.122L1522.58 484.509ZM1524.37 482.869L1523.77 483.416L1524.33 484.029L1524.93 483.481L1524.37 482.869Z" fill="url(#paint100_linear_2071_12706)"/>
<path fill-rule="evenodd" clip-rule="evenodd" d="M1487.08 522.562L1486.48 523.108L1487.04 523.721L1487.64 523.175L1487.08 522.562ZM1489.47 520.374L1488.28 521.467L1488.84 522.08L1490.03 520.986L1489.47 520.374ZM1491.87 518.187L1490.67 519.28L1491.23 519.893L1492.43 518.8L1491.87 518.187ZM1494.26 516L1493.06 517.093L1493.62 517.706L1494.82 516.613L1494.26 516ZM1496.65 513.813L1495.46 514.907L1496.02 515.519L1497.21 514.426L1496.65 513.813ZM1499.05 511.626L1497.85 512.72L1498.41 513.333L1499.61 512.239L1499.05 511.626ZM1501.44 509.44L1500.24 510.533L1500.8 511.146L1502 510.052L1501.44 509.44ZM1503.83 507.251L1502.63 508.346L1503.19 508.959L1504.39 507.864L1503.83 507.251ZM1506.23 505.065L1505.03 506.158L1505.59 506.771L1506.79 505.677L1506.23 505.065ZM1508.62 502.878L1507.42 503.971L1507.98 504.584L1509.18 503.491L1508.62 502.878ZM1511.01 500.691L1509.82 501.784L1510.38 502.397L1511.57 501.304L1511.01 500.691ZM1513.41 498.504L1512.21 499.598L1512.77 500.211L1513.97 499.117L1513.41 498.504ZM1515.8 496.318L1514.6 497.411L1515.16 498.024L1516.36 496.93L1515.8 496.318ZM1518.19 494.129L1517 495.224L1517.56 495.837L1518.75 494.742L1518.19 494.129ZM1520.59 491.943L1519.39 493.036L1519.95 493.649L1521.15 492.555L1520.59 491.943ZM1522.98 489.756L1521.78 490.849L1522.34 491.462L1523.54 490.369L1522.98 489.756ZM1525.37 487.569L1524.18 488.662L1524.74 489.275L1525.93 488.182L1525.37 487.569ZM1527.17 485.928L1526.57 486.476L1527.13 487.088L1527.73 486.541L1527.17 485.928Z" fill="url(#paint101_linear_2071_12706)"/>
<path d="M1466.69 435.096L1435.94 401.445L1438.38 399.208L1469.13 432.859L1466.69 435.096Z" fill="url(#paint102_linear_2071_12706)"/>
<path fill-rule="evenodd" clip-rule="evenodd" d="M1434.56 464.443C1434.38 464.24 1434.2 464.031 1434.02 463.816L1434.66 463.284C1434.83 463.494 1435.01 463.698 1435.18 463.896L1434.56 464.443ZM1432.97 462.512C1432.64 462.081 1432.31 461.633 1431.98 461.167L1432.65 460.686C1432.97 461.143 1433.3 461.584 1433.63 462.005L1432.97 462.512ZM1431.03 459.788C1430.73 459.334 1430.43 458.863 1430.14 458.379L1430.84 457.947C1431.13 458.423 1431.43 458.884 1431.72 459.333L1431.03 459.788ZM1429.29 456.942C1429.02 456.465 1428.75 455.977 1428.49 455.479L1429.22 455.091C1429.48 455.583 1429.74 456.063 1430.01 456.532L1429.29 456.942ZM1427.74 453.987C1427.5 453.492 1427.26 452.988 1427.03 452.474L1427.79 452.136C1428.01 452.642 1428.25 453.139 1428.48 453.626L1427.74 453.987ZM1426.38 450.936C1426.17 450.426 1425.97 449.907 1425.77 449.378L1426.55 449.091C1426.74 449.611 1426.94 450.122 1427.15 450.624L1426.38 450.936ZM1425.22 447.806C1425.05 447.282 1424.88 446.751 1424.72 446.215L1425.51 445.98C1425.67 446.507 1425.83 447.029 1426 447.544L1425.22 447.806ZM1424.27 444.608C1424.13 444.071 1424 443.529 1423.88 442.982L1424.69 442.803C1424.81 443.34 1424.94 443.872 1425.07 444.4L1424.27 444.608ZM1423.54 441.344C1423.44 440.801 1423.35 440.253 1423.27 439.7L1424.09 439.575C1424.17 440.118 1424.26 440.659 1424.36 441.192L1423.54 441.344ZM1423.05 438.044C1422.98 437.493 1422.93 436.939 1422.89 436.38L1423.72 436.317C1423.76 436.866 1423.81 437.41 1423.87 437.951L1423.05 438.044ZM1422.8 434.71C1422.78 434.156 1422.76 433.6 1422.76 433.041L1423.59 433.04C1423.59 433.589 1423.6 434.135 1423.62 434.678L1422.8 434.71ZM1422.8 431.37C1422.82 430.817 1422.85 430.261 1422.9 429.701L1423.72 429.765C1423.68 430.314 1423.65 430.861 1423.63 431.403L1422.8 431.37ZM1423.06 428.034C1423.12 427.487 1423.2 426.937 1423.28 426.382L1424.1 426.512C1424.02 427.053 1423.94 427.595 1423.88 428.131L1423.06 428.034ZM1423.57 424.737C1423.68 424.192 1423.8 423.647 1423.93 423.099L1424.74 423.29C1424.61 423.828 1424.49 424.364 1424.39 424.897L1423.57 424.737ZM1424.35 421.487C1424.5 420.953 1424.66 420.419 1424.83 419.886L1425.62 420.139C1425.45 420.663 1425.29 421.188 1425.15 421.709L1424.35 421.487ZM1425.37 418.299C1425.56 417.783 1425.76 417.266 1425.97 416.748L1426.74 417.058C1426.53 417.567 1426.33 418.075 1426.15 418.583L1425.37 418.299ZM1426.63 415.209C1426.85 414.705 1427.09 414.2 1427.34 413.696L1428.08 414.063C1427.84 414.558 1427.6 415.054 1427.38 415.548L1426.63 415.209ZM1428.1 412.216C1428.36 411.728 1428.63 411.238 1428.92 410.748L1429.64 411.164C1429.36 411.646 1429.09 412.127 1428.83 412.608L1428.1 412.216ZM1429.77 409.33C1430.07 408.862 1430.37 408.393 1430.69 407.925L1431.37 408.387C1431.06 408.846 1430.77 409.309 1430.48 409.769L1429.77 409.33ZM1431.63 406.558C1431.95 406.111 1432.28 405.663 1432.62 405.215L1433.28 405.717C1432.95 406.159 1432.62 406.598 1432.31 407.041L1431.63 406.558ZM1433.65 403.905C1434 403.476 1434.35 403.05 1434.72 402.622L1435.35 403.161C1434.99 403.582 1434.64 404.003 1434.3 404.423L1433.65 403.905ZM1435.82 401.369C1436.18 400.961 1436.56 400.553 1436.95 400.147L1437.55 400.717C1437.17 401.118 1436.79 401.522 1436.43 401.923L1435.82 401.369ZM1438.11 398.952C1438.3 398.751 1438.5 398.552 1438.71 398.355L1439.29 398.947C1439.09 399.141 1438.89 399.339 1438.69 399.535L1438.11 398.952Z" fill="url(#paint103_linear_2071_12706)"/>
<path fill-rule="evenodd" clip-rule="evenodd" d="M1437.55 469.584L1436.95 470.13L1436.39 469.517L1436.99 468.971L1437.55 469.584ZM1439.94 467.397L1438.74 468.491L1438.18 467.878L1439.38 466.785L1439.94 467.397ZM1442.34 465.209L1441.14 466.303L1440.58 465.69L1441.78 464.596L1442.34 465.209ZM1444.73 463.022L1443.53 464.116L1442.97 463.503L1444.17 462.41L1444.73 463.022ZM1447.12 460.836L1445.92 461.929L1445.36 461.316L1446.56 460.223L1447.12 460.836ZM1449.51 458.649L1448.32 459.742L1447.76 459.129L1448.95 458.036L1449.51 458.649ZM1451.91 456.462L1450.71 457.556L1450.15 456.943L1451.35 455.849L1451.91 456.462ZM1454.3 454.275L1453.1 455.369L1452.54 454.756L1453.74 453.663L1454.3 454.275ZM1456.7 452.087L1455.5 453.182L1454.94 452.569L1456.14 451.474L1456.7 452.087ZM1459.09 449.9L1457.89 450.994L1457.33 450.381L1458.53 449.288L1459.09 449.9ZM1461.48 447.714L1460.29 448.807L1459.73 448.194L1460.92 447.101L1461.48 447.714ZM1463.88 445.527L1462.68 446.62L1462.12 446.007L1463.32 444.914L1463.88 445.527ZM1466.27 443.34L1465.07 444.433L1464.51 443.821L1465.71 442.727L1466.27 443.34ZM1468.66 441.153L1467.46 442.247L1466.9 441.634L1468.1 440.54L1468.66 441.153ZM1471.06 438.965L1469.86 440.06L1469.3 439.447L1470.5 438.352L1471.06 438.965ZM1473.45 436.778L1472.25 437.872L1471.69 437.259L1472.89 436.165L1473.45 436.778ZM1475.84 434.591L1474.65 435.685L1474.09 435.072L1475.28 433.979L1475.84 434.591ZM1477.64 432.952L1477.04 433.498L1476.48 432.885L1477.08 432.339L1477.64 432.952Z" fill="url(#paint104_linear_2071_12706)"/>
<path fill-rule="evenodd" clip-rule="evenodd" d="M1433.63 465.301L1433.03 465.848L1432.47 465.235L1433.07 464.688L1433.63 465.301ZM1436.03 463.114L1434.83 464.207L1434.27 463.594L1435.47 462.501L1436.03 463.114ZM1438.42 460.927L1437.22 462.021L1436.66 461.408L1437.86 460.314L1438.42 460.927ZM1440.81 458.74L1439.62 459.834L1439.06 459.221L1440.25 458.128L1440.81 458.74ZM1443.21 456.554L1442.01 457.647L1441.45 457.034L1442.65 455.941L1443.21 456.554ZM1445.6 454.365L1444.4 455.459L1443.84 454.846L1445.04 453.753L1445.6 454.365ZM1447.99 452.179L1446.8 453.272L1446.24 452.659L1447.43 451.566L1447.99 452.179ZM1450.39 449.992L1449.19 451.085L1448.63 450.472L1449.83 449.379L1450.39 449.992ZM1452.78 447.805L1451.58 448.898L1451.02 448.286L1452.22 447.192L1452.78 447.805ZM1455.17 445.618L1453.98 446.712L1453.42 446.099L1454.61 445.005L1455.17 445.618ZM1457.57 443.431L1456.37 444.525L1455.81 443.912L1457.01 442.819L1457.57 443.431ZM1459.96 441.243L1458.76 442.338L1458.2 441.725L1459.4 440.63L1459.96 441.243ZM1462.35 439.056L1461.16 440.15L1460.6 439.537L1461.79 438.444L1462.35 439.056ZM1464.75 436.87L1463.55 437.963L1462.99 437.35L1464.19 436.257L1464.75 436.87ZM1467.14 434.683L1465.94 435.776L1465.38 435.163L1466.58 434.07L1467.14 434.683ZM1469.53 432.496L1468.34 433.589L1467.78 432.977L1468.97 431.883L1469.53 432.496ZM1471.93 430.309L1470.73 431.403L1470.17 430.79L1471.37 429.696L1471.93 430.309ZM1473.72 428.668L1473.12 429.216L1472.56 428.603L1473.16 428.056L1473.72 428.668Z" fill="url(#paint105_linear_2071_12706)"/>
<path d="M1759.57 321.283L1733.3 292.527L1728.4 297L1754.68 325.756L1759.57 321.283Z" fill="url(#paint106_linear_2071_12706)"/>
<path d="M1679.44 381.033L1659.87 359.618L1654.98 364.091L1674.55 385.505L1679.44 381.033Z" fill="url(#paint107_linear_2071_12706)"/>
<path d="M1595.12 546.776L1531.38 477.026L1526.49 481.499L1590.22 551.249L1595.12 546.776Z" fill="url(#paint108_linear_2071_12706)"/>
<path d="M1478.15 525.666L1427.28 469.987L1422.38 474.46L1473.26 530.139L1478.15 525.666Z" fill="url(#paint109_linear_2071_12706)"/>
<path d="M1451.1 500.981L1353.21 590.434L1362.15 600.224L1460.05 510.77L1451.1 500.981Z" fill="url(#paint110_linear_2071_12706)"/>
<path d="M1731.75 300.669L1814.96 224.634L1810.49 219.739L1727.28 295.774L1731.75 300.669Z" fill="url(#paint111_linear_2071_12706)"/>
<path d="M1523.11 491.318L1663.23 363.287L1658.75 358.392L1518.64 486.423L1523.11 491.318Z" fill="url(#paint112_linear_2071_12706)"/>
<path d="M1473.35 436.863L1482.53 428.478L1478.06 423.583L1468.88 431.968L1473.35 436.863Z" fill="url(#paint113_linear_2071_12706)"/>
<path d="M1426.85 479.353L1439.09 468.172L1434.62 463.278L1422.38 474.459L1426.85 479.353Z" fill="url(#paint114_linear_2071_12706)"/>
<path d="M1476.61 533.808L1488.85 522.627L1484.38 517.732L1472.14 528.913L1476.61 533.808Z" fill="url(#paint115_linear_2071_12706)"/>
<path d="M1446.51 121.207L1179.13 365.528L1183.61 370.422L1450.98 126.102L1446.51 121.207Z" fill="url(#paint116_linear_2071_12706)"/>
<path d="M1555.81 0L1431 114.053L1435.47 118.948L1560.29 4.89494L1555.81 0Z" fill="url(#paint117_linear_2071_12706)"/>
<path fill-rule="evenodd" clip-rule="evenodd" d="M1290.6 293.99L1284.17 286.954L1284.78 286.396L1291.77 294.044L1198.15 379.584L1192.28 373.16L1192.89 372.6L1198.21 378.412L1290.6 293.99Z" fill="url(#paint118_linear_2071_12706)"/>
<path fill-rule="evenodd" clip-rule="evenodd" d="M1451.51 146.951L1445.08 139.915L1445.69 139.355L1452.68 147.003L1359.07 232.544L1353.2 226.119L1353.81 225.561L1359.12 231.373L1451.51 146.951Z" fill="url(#paint119_linear_2071_12706)"/>
<path fill-rule="evenodd" clip-rule="evenodd" d="M1566.23 107.242L1604.78 72.0192L1604.22 71.4073L1565.67 106.63L1566.23 107.242Z" fill="url(#paint120_linear_2071_12706)"/>
<path fill-rule="evenodd" clip-rule="evenodd" d="M1572.1 113.666L1610.65 78.4432L1610.09 77.8314L1571.54 113.054L1572.1 113.666Z" fill="url(#paint121_linear_2071_12706)"/>
<path fill-rule="evenodd" clip-rule="evenodd" d="M1575.46 117.337L1614 82.1145L1613.44 81.5026L1574.9 116.725L1575.46 117.337Z" fill="url(#paint122_linear_2071_12706)"/>
<path fill-rule="evenodd" clip-rule="evenodd" d="M1609.75 85.4421L1606.39 81.7709L1605.78 82.3298L1609.14 86.0011L1609.75 85.4421Z" fill="url(#paint123_linear_2071_12706)"/>
<path fill-rule="evenodd" clip-rule="evenodd" d="M1579.77 112.838L1576.41 109.167L1575.8 109.726L1579.15 113.397L1579.77 112.838Z" fill="url(#paint124_linear_2071_12706)"/>
<path fill-rule="evenodd" clip-rule="evenodd" d="M1622.03 92.7428L1585.02 126.568L1585.57 127.179L1622.59 93.3547L1622.03 92.7428Z" fill="url(#paint125_linear_2071_12706)"/>
<defs>
<linearGradient id="paint0_linear_2071_12706" x1="657.388" y1="546.781" x2="-68.6123" y2="887.781" gradientUnits="userSpaceOnUse">
<stop stop-color="#443F3C" stop-opacity="0.2"/>
<stop offset="0.651981" stop-color="#FE6E36"/>
</linearGradient>
<linearGradient id="paint1_linear_2071_12706" x1="657.388" y1="546.781" x2="-68.6123" y2="887.781" gradientUnits="userSpaceOnUse">
<stop stop-color="#443F3C" stop-opacity="0.2"/>
<stop offset="0.651981" stop-color="#FE6E36"/>
</linearGradient>
<linearGradient id="paint2_linear_2071_12706" x1="657.388" y1="546.781" x2="-68.6123" y2="887.781" gradientUnits="userSpaceOnUse">
<stop stop-color="#443F3C" stop-opacity="0.2"/>
<stop offset="0.651981" stop-color="#FE6E36"/>
</linearGradient>
<linearGradient id="paint3_linear_2071_12706" x1="657.388" y1="546.781" x2="-68.6123" y2="887.781" gradientUnits="userSpaceOnUse">
<stop stop-color="#443F3C" stop-opacity="0.2"/>
<stop offset="0.651981" stop-color="#FE6E36"/>
</linearGradient>
<linearGradient id="paint4_linear_2071_12706" x1="657.388" y1="546.781" x2="-68.6123" y2="887.781" gradientUnits="userSpaceOnUse">
<stop stop-color="#443F3C" stop-opacity="0.2"/>
<stop offset="0.651981" stop-color="#FE6E36"/>
</linearGradient>
<linearGradient id="paint5_linear_2071_12706" x1="657.388" y1="546.781" x2="-68.6123" y2="887.781" gradientUnits="userSpaceOnUse">
<stop stop-color="#443F3C" stop-opacity="0.2"/>
<stop offset="0.651981" stop-color="#FE6E36"/>
</linearGradient>
<linearGradient id="paint6_linear_2071_12706" x1="657.388" y1="546.781" x2="-68.6123" y2="887.781" gradientUnits="userSpaceOnUse">
<stop stop-color="#443F3C" stop-opacity="0.2"/>
<stop offset="0.651981" stop-color="#FE6E36"/>
</linearGradient>
<linearGradient id="paint7_linear_2071_12706" x1="657.388" y1="546.781" x2="-68.6123" y2="887.781" gradientUnits="userSpaceOnUse">
<stop stop-color="#443F3C" stop-opacity="0.2"/>
<stop offset="0.651981" stop-color="#FE6E36"/>
</linearGradient>
<linearGradient id="paint8_linear_2071_12706" x1="657.388" y1="546.781" x2="-68.6123" y2="887.781" gradientUnits="userSpaceOnUse">
<stop stop-color="#443F3C" stop-opacity="0.2"/>
<stop offset="0.651981" stop-color="#FE6E36"/>
</linearGradient>
<linearGradient id="paint9_linear_2071_12706" x1="657.388" y1="546.781" x2="-68.6123" y2="887.781" gradientUnits="userSpaceOnUse">
<stop stop-color="#443F3C" stop-opacity="0.2"/>
<stop offset="0.651981" stop-color="#FE6E36"/>
</linearGradient>
<linearGradient id="paint10_linear_2071_12706" x1="657.388" y1="546.781" x2="-68.6123" y2="887.781" gradientUnits="userSpaceOnUse">
<stop stop-color="#443F3C" stop-opacity="0.2"/>
<stop offset="0.651981" stop-color="#FE6E36"/>
</linearGradient>
<linearGradient id="paint11_linear_2071_12706" x1="657.388" y1="546.781" x2="-68.6123" y2="887.781" gradientUnits="userSpaceOnUse">
<stop stop-color="#443F3C" stop-opacity="0.2"/>
<stop offset="0.651981" stop-color="#FE6E36"/>
</linearGradient>
<linearGradient id="paint12_linear_2071_12706" x1="657.388" y1="546.781" x2="-68.6123" y2="887.781" gradientUnits="userSpaceOnUse">
<stop stop-color="#443F3C" stop-opacity="0.2"/>
<stop offset="0.651981" stop-color="#FE6E36"/>
</linearGradient>
<linearGradient id="paint13_linear_2071_12706" x1="657.388" y1="546.781" x2="-68.6123" y2="887.781" gradientUnits="userSpaceOnUse">
<stop stop-color="#443F3C" stop-opacity="0.2"/>
<stop offset="0.651981" stop-color="#FE6E36"/>
</linearGradient>
<linearGradient id="paint14_linear_2071_12706" x1="657.388" y1="546.781" x2="-68.6123" y2="887.781" gradientUnits="userSpaceOnUse">
<stop stop-color="#443F3C" stop-opacity="0.2"/>
<stop offset="0.651981" stop-color="#FE6E36"/>
</linearGradient>
<linearGradient id="paint15_linear_2071_12706" x1="657.388" y1="546.781" x2="-68.6123" y2="887.781" gradientUnits="userSpaceOnUse">
<stop stop-color="#443F3C" stop-opacity="0.2"/>
<stop offset="0.651981" stop-color="#FE6E36"/>
</linearGradient>
<linearGradient id="paint16_linear_2071_12706" x1="657.388" y1="546.781" x2="-68.6123" y2="887.781" gradientUnits="userSpaceOnUse">
<stop stop-color="#443F3C" stop-opacity="0.2"/>
<stop offset="0.651981" stop-color="#FE6E36"/>
</linearGradient>
<linearGradient id="paint17_linear_2071_12706" x1="657.388" y1="546.781" x2="-68.6123" y2="887.781" gradientUnits="userSpaceOnUse">
<stop stop-color="#443F3C" stop-opacity="0.2"/>
<stop offset="0.651981" stop-color="#FE6E36"/>
</linearGradient>
<linearGradient id="paint18_linear_2071_12706" x1="657.388" y1="546.781" x2="-68.6123" y2="887.781" gradientUnits="userSpaceOnUse">
<stop stop-color="#443F3C" stop-opacity="0.2"/>
<stop offset="0.651981" stop-color="#FE6E36"/>
</linearGradient>
<linearGradient id="paint19_linear_2071_12706" x1="657.388" y1="546.781" x2="-68.6123" y2="887.781" gradientUnits="userSpaceOnUse">
<stop stop-color="#443F3C" stop-opacity="0.2"/>
<stop offset="0.651981" stop-color="#FE6E36"/>
</linearGradient>
<linearGradient id="paint20_linear_2071_12706" x1="657.388" y1="546.781" x2="-68.6123" y2="887.781" gradientUnits="userSpaceOnUse">
<stop stop-color="#443F3C" stop-opacity="0.2"/>
<stop offset="0.651981" stop-color="#FE6E36"/>
</linearGradient>
<linearGradient id="paint21_linear_2071_12706" x1="657.388" y1="546.781" x2="-68.6123" y2="887.781" gradientUnits="userSpaceOnUse">
<stop stop-color="#443F3C" stop-opacity="0.2"/>
<stop offset="0.651981" stop-color="#FE6E36"/>
</linearGradient>
<linearGradient id="paint22_linear_2071_12706" x1="657.388" y1="546.781" x2="-68.6123" y2="887.781" gradientUnits="userSpaceOnUse">
<stop stop-color="#443F3C" stop-opacity="0.2"/>
<stop offset="0.651981" stop-color="#FE6E36"/>
</linearGradient>
<linearGradient id="paint23_linear_2071_12706" x1="657.388" y1="546.781" x2="-68.6123" y2="887.781" gradientUnits="userSpaceOnUse">
<stop stop-color="#443F3C" stop-opacity="0.2"/>
<stop offset="0.651981" stop-color="#FE6E36"/>
</linearGradient>
<linearGradient id="paint24_linear_2071_12706" x1="657.388" y1="546.781" x2="-68.6123" y2="887.781" gradientUnits="userSpaceOnUse">
<stop stop-color="#443F3C" stop-opacity="0.2"/>
<stop offset="0.651981" stop-color="#FE6E36"/>
</linearGradient>
<linearGradient id="paint25_linear_2071_12706" x1="657.388" y1="546.781" x2="-68.6123" y2="887.781" gradientUnits="userSpaceOnUse">
<stop stop-color="#443F3C" stop-opacity="0.2"/>
<stop offset="0.651981" stop-color="#FE6E36"/>
</linearGradient>
<linearGradient id="paint26_linear_2071_12706" x1="657.388" y1="546.781" x2="-68.6123" y2="887.781" gradientUnits="userSpaceOnUse">
<stop stop-color="#443F3C" stop-opacity="0.2"/>
<stop offset="0.651981" stop-color="#FE6E36"/>
</linearGradient>
<linearGradient id="paint27_linear_2071_12706" x1="657.388" y1="546.781" x2="-68.6123" y2="887.781" gradientUnits="userSpaceOnUse">
<stop stop-color="#443F3C" stop-opacity="0.2"/>
<stop offset="0.651981" stop-color="#FE6E36"/>
</linearGradient>
<linearGradient id="paint28_linear_2071_12706" x1="657.388" y1="546.781" x2="-68.6123" y2="887.781" gradientUnits="userSpaceOnUse">
<stop stop-color="#443F3C" stop-opacity="0.2"/>
<stop offset="0.651981" stop-color="#FE6E36"/>
</linearGradient>
<linearGradient id="paint29_linear_2071_12706" x1="657.388" y1="546.781" x2="-68.6123" y2="887.781" gradientUnits="userSpaceOnUse">
<stop stop-color="#443F3C" stop-opacity="0.2"/>
<stop offset="0.651981" stop-color="#FE6E36"/>
</linearGradient>
<linearGradient id="paint30_linear_2071_12706" x1="657.388" y1="546.781" x2="-68.6123" y2="887.781" gradientUnits="userSpaceOnUse">
<stop stop-color="#443F3C" stop-opacity="0.2"/>
<stop offset="0.651981" stop-color="#FE6E36"/>
</linearGradient>
<linearGradient id="paint31_linear_2071_12706" x1="657.388" y1="546.781" x2="-68.6123" y2="887.781" gradientUnits="userSpaceOnUse">
<stop stop-color="#443F3C" stop-opacity="0.2"/>
<stop offset="0.651981" stop-color="#FE6E36"/>
</linearGradient>
<linearGradient id="paint32_linear_2071_12706" x1="657.388" y1="546.781" x2="-68.6123" y2="887.781" gradientUnits="userSpaceOnUse">
<stop stop-color="#443F3C" stop-opacity="0.2"/>
<stop offset="0.651981" stop-color="#FE6E36"/>
</linearGradient>
<linearGradient id="paint33_linear_2071_12706" x1="657.388" y1="546.781" x2="-68.6123" y2="887.781" gradientUnits="userSpaceOnUse">
<stop stop-color="#443F3C" stop-opacity="0.2"/>
<stop offset="0.651981" stop-color="#FE6E36"/>
</linearGradient>
<linearGradient id="paint34_linear_2071_12706" x1="657.388" y1="546.781" x2="-68.6123" y2="887.781" gradientUnits="userSpaceOnUse">
<stop stop-color="#443F3C" stop-opacity="0.2"/>
<stop offset="0.651981" stop-color="#FE6E36"/>
</linearGradient>
<linearGradient id="paint35_linear_2071_12706" x1="657.388" y1="546.781" x2="-68.6123" y2="887.781" gradientUnits="userSpaceOnUse">
<stop stop-color="#443F3C" stop-opacity="0.2"/>
<stop offset="0.651981" stop-color="#FE6E36"/>
</linearGradient>
<linearGradient id="paint36_linear_2071_12706" x1="657.388" y1="546.781" x2="-68.6123" y2="887.781" gradientUnits="userSpaceOnUse">
<stop stop-color="#443F3C" stop-opacity="0.2"/>
<stop offset="0.651981" stop-color="#FE6E36"/>
</linearGradient>
<linearGradient id="paint37_linear_2071_12706" x1="657.388" y1="546.781" x2="-68.6123" y2="887.781" gradientUnits="userSpaceOnUse">
<stop stop-color="#443F3C" stop-opacity="0.2"/>
<stop offset="0.651981" stop-color="#FE6E36"/>
</linearGradient>
<linearGradient id="paint38_linear_2071_12706" x1="657.388" y1="546.781" x2="-68.6123" y2="887.781" gradientUnits="userSpaceOnUse">
<stop stop-color="#443F3C" stop-opacity="0.2"/>
<stop offset="0.651981" stop-color="#FE6E36"/>
</linearGradient>
<linearGradient id="paint39_linear_2071_12706" x1="657.388" y1="546.781" x2="-68.6123" y2="887.781" gradientUnits="userSpaceOnUse">
<stop stop-color="#443F3C" stop-opacity="0.2"/>
<stop offset="0.651981" stop-color="#FE6E36"/>
</linearGradient>
<linearGradient id="paint40_linear_2071_12706" x1="657.388" y1="546.781" x2="-68.6123" y2="887.781" gradientUnits="userSpaceOnUse">
<stop stop-color="#443F3C" stop-opacity="0.2"/>
<stop offset="0.651981" stop-color="#FE6E36"/>
</linearGradient>
<linearGradient id="paint41_linear_2071_12706" x1="657.388" y1="546.781" x2="-68.6123" y2="887.781" gradientUnits="userSpaceOnUse">
<stop stop-color="#443F3C" stop-opacity="0.2"/>
<stop offset="0.651981" stop-color="#FE6E36"/>
</linearGradient>
<linearGradient id="paint42_linear_2071_12706" x1="657.388" y1="546.781" x2="-68.6123" y2="887.781" gradientUnits="userSpaceOnUse">
<stop stop-color="#443F3C" stop-opacity="0.2"/>
<stop offset="0.651981" stop-color="#FE6E36"/>
</linearGradient>
<linearGradient id="paint43_linear_2071_12706" x1="657.388" y1="546.781" x2="-68.6123" y2="887.781" gradientUnits="userSpaceOnUse">
<stop stop-color="#443F3C" stop-opacity="0.2"/>
<stop offset="0.651981" stop-color="#FE6E36"/>
</linearGradient>
<linearGradient id="paint44_linear_2071_12706" x1="657.388" y1="546.781" x2="-68.6123" y2="887.781" gradientUnits="userSpaceOnUse">
<stop stop-color="#443F3C" stop-opacity="0.2"/>
<stop offset="0.651981" stop-color="#FE6E36"/>
</linearGradient>
<linearGradient id="paint45_linear_2071_12706" x1="657.388" y1="546.781" x2="-68.6123" y2="887.781" gradientUnits="userSpaceOnUse">
<stop stop-color="#443F3C" stop-opacity="0.2"/>
<stop offset="0.651981" stop-color="#FE6E36"/>
</linearGradient>
<linearGradient id="paint46_linear_2071_12706" x1="657.388" y1="546.781" x2="-68.6123" y2="887.781" gradientUnits="userSpaceOnUse">
<stop stop-color="#443F3C" stop-opacity="0.2"/>
<stop offset="0.651981" stop-color="#FE6E36"/>
</linearGradient>
<linearGradient id="paint47_linear_2071_12706" x1="657.388" y1="546.781" x2="-68.6123" y2="887.781" gradientUnits="userSpaceOnUse">
<stop stop-color="#443F3C" stop-opacity="0.2"/>
<stop offset="0.651981" stop-color="#FE6E36"/>
</linearGradient>
<linearGradient id="paint48_linear_2071_12706" x1="657.388" y1="546.781" x2="-68.6123" y2="887.781" gradientUnits="userSpaceOnUse">
<stop stop-color="#443F3C" stop-opacity="0.2"/>
<stop offset="0.651981" stop-color="#FE6E36"/>
</linearGradient>
<linearGradient id="paint49_linear_2071_12706" x1="657.388" y1="546.781" x2="-68.6123" y2="887.781" gradientUnits="userSpaceOnUse">
<stop stop-color="#443F3C" stop-opacity="0.2"/>
<stop offset="0.651981" stop-color="#FE6E36"/>
</linearGradient>
<linearGradient id="paint50_linear_2071_12706" x1="657.388" y1="546.781" x2="-68.6123" y2="887.781" gradientUnits="userSpaceOnUse">
<stop stop-color="#443F3C" stop-opacity="0.2"/>
<stop offset="0.651981" stop-color="#FE6E36"/>
</linearGradient>
<linearGradient id="paint51_linear_2071_12706" x1="657.388" y1="546.781" x2="-68.6123" y2="887.781" gradientUnits="userSpaceOnUse">
<stop stop-color="#443F3C" stop-opacity="0.2"/>
<stop offset="0.651981" stop-color="#FE6E36"/>
</linearGradient>
<linearGradient id="paint52_linear_2071_12706" x1="657.388" y1="546.781" x2="-68.6123" y2="887.781" gradientUnits="userSpaceOnUse">
<stop stop-color="#443F3C" stop-opacity="0.2"/>
<stop offset="0.651981" stop-color="#FE6E36"/>
</linearGradient>
<linearGradient id="paint53_linear_2071_12706" x1="657.388" y1="546.781" x2="-68.6123" y2="887.781" gradientUnits="userSpaceOnUse">
<stop stop-color="#443F3C" stop-opacity="0.2"/>
<stop offset="0.651981" stop-color="#FE6E36"/>
</linearGradient>
<linearGradient id="paint54_linear_2071_12706" x1="657.388" y1="546.781" x2="-68.6123" y2="887.781" gradientUnits="userSpaceOnUse">
<stop stop-color="#443F3C" stop-opacity="0.2"/>
<stop offset="0.651981" stop-color="#FE6E36"/>
</linearGradient>
<linearGradient id="paint55_linear_2071_12706" x1="657.388" y1="546.781" x2="-68.6123" y2="887.781" gradientUnits="userSpaceOnUse">
<stop stop-color="#443F3C" stop-opacity="0.2"/>
<stop offset="0.651981" stop-color="#FE6E36"/>
</linearGradient>
<linearGradient id="paint56_linear_2071_12706" x1="657.388" y1="546.781" x2="-68.6123" y2="887.781" gradientUnits="userSpaceOnUse">
<stop stop-color="#443F3C" stop-opacity="0.2"/>
<stop offset="0.651981" stop-color="#FE6E36"/>
</linearGradient>
<linearGradient id="paint57_linear_2071_12706" x1="657.388" y1="546.781" x2="-68.6123" y2="887.781" gradientUnits="userSpaceOnUse">
<stop stop-color="#443F3C" stop-opacity="0.2"/>
<stop offset="0.651981" stop-color="#FE6E36"/>
</linearGradient>
<linearGradient id="paint58_linear_2071_12706" x1="657.388" y1="546.781" x2="-68.6123" y2="887.781" gradientUnits="userSpaceOnUse">
<stop stop-color="#443F3C" stop-opacity="0.2"/>
<stop offset="0.651981" stop-color="#FE6E36"/>
</linearGradient>
<linearGradient id="paint59_linear_2071_12706" x1="657.388" y1="546.781" x2="-68.6123" y2="887.781" gradientUnits="userSpaceOnUse">
<stop stop-color="#443F3C" stop-opacity="0.2"/>
<stop offset="0.651981" stop-color="#FE6E36"/>
</linearGradient>
<linearGradient id="paint60_linear_2071_12706" x1="657.388" y1="546.781" x2="-68.6123" y2="887.781" gradientUnits="userSpaceOnUse">
<stop stop-color="#443F3C" stop-opacity="0.2"/>
<stop offset="0.651981" stop-color="#FE6E36"/>
</linearGradient>
<linearGradient id="paint61_linear_2071_12706" x1="657.388" y1="546.781" x2="-68.6123" y2="887.781" gradientUnits="userSpaceOnUse">
<stop stop-color="#443F3C" stop-opacity="0.2"/>
<stop offset="0.651981" stop-color="#FE6E36"/>
</linearGradient>
<linearGradient id="paint62_linear_2071_12706" x1="657.388" y1="546.781" x2="-68.6123" y2="887.781" gradientUnits="userSpaceOnUse">
<stop stop-color="#443F3C" stop-opacity="0.2"/>
<stop offset="0.651981" stop-color="#FE6E36"/>
</linearGradient>
<linearGradient id="paint63_linear_2071_12706" x1="1242.39" y1="718.781" x2="1517.89" y2="252.781" gradientUnits="userSpaceOnUse">
<stop stop-color="#443F3C" stop-opacity="0.2"/>
<stop offset="0.651981" stop-color="#FE6E36"/>
</linearGradient>
<linearGradient id="paint64_linear_2071_12706" x1="1242.39" y1="718.781" x2="1517.89" y2="252.781" gradientUnits="userSpaceOnUse">
<stop stop-color="#443F3C" stop-opacity="0.2"/>
<stop offset="0.651981" stop-color="#FE6E36"/>
</linearGradient>
<linearGradient id="paint65_linear_2071_12706" x1="1242.39" y1="718.781" x2="1517.89" y2="252.781" gradientUnits="userSpaceOnUse">
<stop stop-color="#443F3C" stop-opacity="0.2"/>
<stop offset="0.651981" stop-color="#FE6E36"/>
</linearGradient>
<linearGradient id="paint66_linear_2071_12706" x1="1242.39" y1="718.781" x2="1517.89" y2="252.781" gradientUnits="userSpaceOnUse">
<stop stop-color="#443F3C" stop-opacity="0.2"/>
<stop offset="0.651981" stop-color="#FE6E36"/>
</linearGradient>
<linearGradient id="paint67_linear_2071_12706" x1="1242.39" y1="718.781" x2="1517.89" y2="252.781" gradientUnits="userSpaceOnUse">
<stop stop-color="#443F3C" stop-opacity="0.2"/>
<stop offset="0.651981" stop-color="#FE6E36"/>
</linearGradient>
<linearGradient id="paint68_linear_2071_12706" x1="1242.39" y1="718.781" x2="1517.89" y2="252.781" gradientUnits="userSpaceOnUse">
<stop stop-color="#443F3C" stop-opacity="0.2"/>
<stop offset="0.651981" stop-color="#FE6E36"/>
</linearGradient>
<linearGradient id="paint69_linear_2071_12706" x1="1242.39" y1="718.781" x2="1517.89" y2="252.781" gradientUnits="userSpaceOnUse">
<stop stop-color="#443F3C" stop-opacity="0.2"/>
<stop offset="0.651981" stop-color="#FE6E36"/>
</linearGradient>
<linearGradient id="paint70_linear_2071_12706" x1="1242.39" y1="718.781" x2="1517.89" y2="252.781" gradientUnits="userSpaceOnUse">
<stop stop-color="#443F3C" stop-opacity="0.2"/>
<stop offset="0.651981" stop-color="#FE6E36"/>
</linearGradient>
<linearGradient id="paint71_linear_2071_12706" x1="1242.39" y1="718.781" x2="1517.89" y2="252.781" gradientUnits="userSpaceOnUse">
<stop stop-color="#443F3C" stop-opacity="0.2"/>
<stop offset="0.651981" stop-color="#FE6E36"/>
</linearGradient>
<linearGradient id="paint72_linear_2071_12706" x1="1242.39" y1="718.781" x2="1517.89" y2="252.781" gradientUnits="userSpaceOnUse">
<stop stop-color="#443F3C" stop-opacity="0.2"/>
<stop offset="0.651981" stop-color="#FE6E36"/>
</linearGradient>
<linearGradient id="paint73_linear_2071_12706" x1="1242.39" y1="718.781" x2="1517.89" y2="252.781" gradientUnits="userSpaceOnUse">
<stop stop-color="#443F3C" stop-opacity="0.2"/>
<stop offset="0.651981" stop-color="#FE6E36"/>
</linearGradient>
<linearGradient id="paint74_linear_2071_12706" x1="1242.39" y1="718.781" x2="1517.89" y2="252.781" gradientUnits="userSpaceOnUse">
<stop stop-color="#443F3C" stop-opacity="0.2"/>
<stop offset="0.651981" stop-color="#FE6E36"/>
</linearGradient>
<linearGradient id="paint75_linear_2071_12706" x1="1242.39" y1="718.781" x2="1517.89" y2="252.781" gradientUnits="userSpaceOnUse">
<stop stop-color="#443F3C" stop-opacity="0.2"/>
<stop offset="0.651981" stop-color="#FE6E36"/>
</linearGradient>
<linearGradient id="paint76_linear_2071_12706" x1="1242.39" y1="718.781" x2="1517.89" y2="252.781" gradientUnits="userSpaceOnUse">
<stop stop-color="#443F3C" stop-opacity="0.2"/>
<stop offset="0.651981" stop-color="#FE6E36"/>
</linearGradient>
<linearGradient id="paint77_linear_2071_12706" x1="1242.39" y1="718.781" x2="1517.89" y2="252.781" gradientUnits="userSpaceOnUse">
<stop stop-color="#443F3C" stop-opacity="0.2"/>
<stop offset="0.651981" stop-color="#FE6E36"/>
</linearGradient>
<linearGradient id="paint78_linear_2071_12706" x1="1242.39" y1="718.781" x2="1517.89" y2="252.781" gradientUnits="userSpaceOnUse">
<stop stop-color="#443F3C" stop-opacity="0.2"/>
<stop offset="0.651981" stop-color="#FE6E36"/>
</linearGradient>
<linearGradient id="paint79_linear_2071_12706" x1="1242.39" y1="718.781" x2="1517.89" y2="252.781" gradientUnits="userSpaceOnUse">
<stop stop-color="#443F3C" stop-opacity="0.2"/>
<stop offset="0.651981" stop-color="#FE6E36"/>
</linearGradient>
<linearGradient id="paint80_linear_2071_12706" x1="1242.39" y1="718.781" x2="1517.89" y2="252.781" gradientUnits="userSpaceOnUse">
<stop stop-color="#443F3C" stop-opacity="0.2"/>
<stop offset="0.651981" stop-color="#FE6E36"/>
</linearGradient>
<linearGradient id="paint81_linear_2071_12706" x1="1242.39" y1="718.781" x2="1517.89" y2="252.781" gradientUnits="userSpaceOnUse">
<stop stop-color="#443F3C" stop-opacity="0.2"/>
<stop offset="0.651981" stop-color="#FE6E36"/>
</linearGradient>
<linearGradient id="paint82_linear_2071_12706" x1="1242.39" y1="718.781" x2="1517.89" y2="252.781" gradientUnits="userSpaceOnUse">
<stop stop-color="#443F3C" stop-opacity="0.2"/>
<stop offset="0.651981" stop-color="#FE6E36"/>
</linearGradient>
<linearGradient id="paint83_linear_2071_12706" x1="1242.39" y1="718.781" x2="1517.89" y2="252.781" gradientUnits="userSpaceOnUse">
<stop stop-color="#443F3C" stop-opacity="0.2"/>
<stop offset="0.651981" stop-color="#FE6E36"/>
</linearGradient>
<linearGradient id="paint84_linear_2071_12706" x1="1242.39" y1="718.781" x2="1517.89" y2="252.781" gradientUnits="userSpaceOnUse">
<stop stop-color="#443F3C" stop-opacity="0.2"/>
<stop offset="0.651981" stop-color="#FE6E36"/>
</linearGradient>
<linearGradient id="paint85_linear_2071_12706" x1="1242.39" y1="718.781" x2="1517.89" y2="252.781" gradientUnits="userSpaceOnUse">
<stop stop-color="#443F3C" stop-opacity="0.2"/>
<stop offset="0.651981" stop-color="#FE6E36"/>
</linearGradient>
<linearGradient id="paint86_linear_2071_12706" x1="1242.39" y1="718.781" x2="1517.89" y2="252.781" gradientUnits="userSpaceOnUse">
<stop stop-color="#443F3C" stop-opacity="0.2"/>
<stop offset="0.651981" stop-color="#FE6E36"/>
</linearGradient>
<linearGradient id="paint87_linear_2071_12706" x1="1242.39" y1="718.781" x2="1517.89" y2="252.781" gradientUnits="userSpaceOnUse">
<stop stop-color="#443F3C" stop-opacity="0.2"/>
<stop offset="0.651981" stop-color="#FE6E36"/>
</linearGradient>
<linearGradient id="paint88_linear_2071_12706" x1="1242.39" y1="718.781" x2="1517.89" y2="252.781" gradientUnits="userSpaceOnUse">
<stop stop-color="#443F3C" stop-opacity="0.2"/>
<stop offset="0.651981" stop-color="#FE6E36"/>
</linearGradient>
<linearGradient id="paint89_linear_2071_12706" x1="1242.39" y1="718.781" x2="1517.89" y2="252.781" gradientUnits="userSpaceOnUse">
<stop stop-color="#443F3C" stop-opacity="0.2"/>
<stop offset="0.651981" stop-color="#FE6E36"/>
</linearGradient>
<linearGradient id="paint90_linear_2071_12706" x1="1242.39" y1="718.781" x2="1517.89" y2="252.781" gradientUnits="userSpaceOnUse">
<stop stop-color="#443F3C" stop-opacity="0.2"/>
<stop offset="0.651981" stop-color="#FE6E36"/>
</linearGradient>
<linearGradient id="paint91_linear_2071_12706" x1="1242.39" y1="718.781" x2="1517.89" y2="252.781" gradientUnits="userSpaceOnUse">
<stop stop-color="#443F3C" stop-opacity="0.2"/>
<stop offset="0.651981" stop-color="#FE6E36"/>
</linearGradient>
<linearGradient id="paint92_linear_2071_12706" x1="1242.39" y1="718.781" x2="1517.89" y2="252.781" gradientUnits="userSpaceOnUse">
<stop stop-color="#443F3C" stop-opacity="0.2"/>
<stop offset="0.651981" stop-color="#FE6E36"/>
</linearGradient>
<linearGradient id="paint93_linear_2071_12706" x1="1242.39" y1="718.781" x2="1517.89" y2="252.781" gradientUnits="userSpaceOnUse">
<stop stop-color="#443F3C" stop-opacity="0.2"/>
<stop offset="0.651981" stop-color="#FE6E36"/>
</linearGradient>
<linearGradient id="paint94_linear_2071_12706" x1="1242.39" y1="718.781" x2="1517.89" y2="252.781" gradientUnits="userSpaceOnUse">
<stop stop-color="#443F3C" stop-opacity="0.2"/>
<stop offset="0.651981" stop-color="#FE6E36"/>
</linearGradient>
<linearGradient id="paint95_linear_2071_12706" x1="1242.39" y1="718.781" x2="1517.89" y2="252.781" gradientUnits="userSpaceOnUse">
<stop stop-color="#443F3C" stop-opacity="0.2"/>
<stop offset="0.651981" stop-color="#FE6E36"/>
</linearGradient>
<linearGradient id="paint96_linear_2071_12706" x1="1242.39" y1="718.781" x2="1517.89" y2="252.781" gradientUnits="userSpaceOnUse">
<stop stop-color="#443F3C" stop-opacity="0.2"/>
<stop offset="0.651981" stop-color="#FE6E36"/>
</linearGradient>
<linearGradient id="paint97_linear_2071_12706" x1="1242.39" y1="718.781" x2="1517.89" y2="252.781" gradientUnits="userSpaceOnUse">
<stop stop-color="#443F3C" stop-opacity="0.2"/>
<stop offset="0.651981" stop-color="#FE6E36"/>
</linearGradient>
<linearGradient id="paint98_linear_2071_12706" x1="1242.39" y1="718.781" x2="1517.89" y2="252.781" gradientUnits="userSpaceOnUse">
<stop stop-color="#443F3C" stop-opacity="0.2"/>
<stop offset="0.651981" stop-color="#FE6E36"/>
</linearGradient>
<linearGradient id="paint99_linear_2071_12706" x1="1242.39" y1="718.781" x2="1517.89" y2="252.781" gradientUnits="userSpaceOnUse">
<stop stop-color="#443F3C" stop-opacity="0.2"/>
<stop offset="0.651981" stop-color="#FE6E36"/>
</linearGradient>
<linearGradient id="paint100_linear_2071_12706" x1="1242.39" y1="718.781" x2="1517.89" y2="252.781" gradientUnits="userSpaceOnUse">
<stop stop-color="#443F3C" stop-opacity="0.2"/>
<stop offset="0.651981" stop-color="#FE6E36"/>
</linearGradient>
<linearGradient id="paint101_linear_2071_12706" x1="1242.39" y1="718.781" x2="1517.89" y2="252.781" gradientUnits="userSpaceOnUse">
<stop stop-color="#443F3C" stop-opacity="0.2"/>
<stop offset="0.651981" stop-color="#FE6E36"/>
</linearGradient>
<linearGradient id="paint102_linear_2071_12706" x1="1242.39" y1="718.781" x2="1517.89" y2="252.781" gradientUnits="userSpaceOnUse">
<stop stop-color="#443F3C" stop-opacity="0.2"/>
<stop offset="0.651981" stop-color="#FE6E36"/>
</linearGradient>
<linearGradient id="paint103_linear_2071_12706" x1="1242.39" y1="718.781" x2="1517.89" y2="252.781" gradientUnits="userSpaceOnUse">
<stop stop-color="#443F3C" stop-opacity="0.2"/>
<stop offset="0.651981" stop-color="#FE6E36"/>
</linearGradient>
<linearGradient id="paint104_linear_2071_12706" x1="1242.39" y1="718.781" x2="1517.89" y2="252.781" gradientUnits="userSpaceOnUse">
<stop stop-color="#443F3C" stop-opacity="0.2"/>
<stop offset="0.651981" stop-color="#FE6E36"/>
</linearGradient>
<linearGradient id="paint105_linear_2071_12706" x1="1242.39" y1="718.781" x2="1517.89" y2="252.781" gradientUnits="userSpaceOnUse">
<stop stop-color="#443F3C" stop-opacity="0.2"/>
<stop offset="0.651981" stop-color="#FE6E36"/>
</linearGradient>
<linearGradient id="paint106_linear_2071_12706" x1="1242.39" y1="718.781" x2="1517.89" y2="252.781" gradientUnits="userSpaceOnUse">
<stop stop-color="#443F3C" stop-opacity="0.2"/>
<stop offset="0.651981" stop-color="#FE6E36"/>
</linearGradient>
<linearGradient id="paint107_linear_2071_12706" x1="1242.39" y1="718.781" x2="1517.89" y2="252.781" gradientUnits="userSpaceOnUse">
<stop stop-color="#443F3C" stop-opacity="0.2"/>
<stop offset="0.651981" stop-color="#FE6E36"/>
</linearGradient>
<linearGradient id="paint108_linear_2071_12706" x1="1242.39" y1="718.781" x2="1517.89" y2="252.781" gradientUnits="userSpaceOnUse">
<stop stop-color="#443F3C" stop-opacity="0.2"/>
<stop offset="0.651981" stop-color="#FE6E36"/>
</linearGradient>
<linearGradient id="paint109_linear_2071_12706" x1="1242.39" y1="718.781" x2="1517.89" y2="252.781" gradientUnits="userSpaceOnUse">
<stop stop-color="#443F3C" stop-opacity="0.2"/>
<stop offset="0.651981" stop-color="#FE6E36"/>
</linearGradient>
<linearGradient id="paint110_linear_2071_12706" x1="1242.39" y1="718.781" x2="1517.89" y2="252.781" gradientUnits="userSpaceOnUse">
<stop stop-color="#443F3C" stop-opacity="0.2"/>
<stop offset="0.651981" stop-color="#FE6E36"/>
</linearGradient>
<linearGradient id="paint111_linear_2071_12706" x1="1242.39" y1="718.781" x2="1517.89" y2="252.781" gradientUnits="userSpaceOnUse">
<stop stop-color="#443F3C" stop-opacity="0.2"/>
<stop offset="0.651981" stop-color="#FE6E36"/>
</linearGradient>
<linearGradient id="paint112_linear_2071_12706" x1="1242.39" y1="718.781" x2="1517.89" y2="252.781" gradientUnits="userSpaceOnUse">
<stop stop-color="#443F3C" stop-opacity="0.2"/>
<stop offset="0.651981" stop-color="#FE6E36"/>
</linearGradient>
<linearGradient id="paint113_linear_2071_12706" x1="1242.39" y1="718.781" x2="1517.89" y2="252.781" gradientUnits="userSpaceOnUse">
<stop stop-color="#443F3C" stop-opacity="0.2"/>
<stop offset="0.651981" stop-color="#FE6E36"/>
</linearGradient>
<linearGradient id="paint114_linear_2071_12706" x1="1242.39" y1="718.781" x2="1517.89" y2="252.781" gradientUnits="userSpaceOnUse">
<stop stop-color="#443F3C" stop-opacity="0.2"/>
<stop offset="0.651981" stop-color="#FE6E36"/>
</linearGradient>
<linearGradient id="paint115_linear_2071_12706" x1="1242.39" y1="718.781" x2="1517.89" y2="252.781" gradientUnits="userSpaceOnUse">
<stop stop-color="#443F3C" stop-opacity="0.2"/>
<stop offset="0.651981" stop-color="#FE6E36"/>
</linearGradient>
<linearGradient id="paint116_linear_2071_12706" x1="1242.39" y1="718.781" x2="1517.89" y2="252.781" gradientUnits="userSpaceOnUse">
<stop stop-color="#443F3C" stop-opacity="0.2"/>
<stop offset="0.651981" stop-color="#FE6E36"/>
</linearGradient>
<linearGradient id="paint117_linear_2071_12706" x1="1242.39" y1="718.781" x2="1517.89" y2="252.781" gradientUnits="userSpaceOnUse">
<stop stop-color="#443F3C" stop-opacity="0.2"/>
<stop offset="0.651981" stop-color="#FE6E36"/>
</linearGradient>
<linearGradient id="paint118_linear_2071_12706" x1="1242.39" y1="718.781" x2="1517.89" y2="252.781" gradientUnits="userSpaceOnUse">
<stop stop-color="#443F3C" stop-opacity="0.2"/>
<stop offset="0.651981" stop-color="#FE6E36"/>
</linearGradient>
<linearGradient id="paint119_linear_2071_12706" x1="1242.39" y1="718.781" x2="1517.89" y2="252.781" gradientUnits="userSpaceOnUse">
<stop stop-color="#443F3C" stop-opacity="0.2"/>
<stop offset="0.651981" stop-color="#FE6E36"/>
</linearGradient>
<linearGradient id="paint120_linear_2071_12706" x1="1242.39" y1="718.781" x2="1517.89" y2="252.781" gradientUnits="userSpaceOnUse">
<stop stop-color="#443F3C" stop-opacity="0.2"/>
<stop offset="0.651981" stop-color="#FE6E36"/>
</linearGradient>
<linearGradient id="paint121_linear_2071_12706" x1="1242.39" y1="718.781" x2="1517.89" y2="252.781" gradientUnits="userSpaceOnUse">
<stop stop-color="#443F3C" stop-opacity="0.2"/>
<stop offset="0.651981" stop-color="#FE6E36"/>
</linearGradient>
<linearGradient id="paint122_linear_2071_12706" x1="1242.39" y1="718.781" x2="1517.89" y2="252.781" gradientUnits="userSpaceOnUse">
<stop stop-color="#443F3C" stop-opacity="0.2"/>
<stop offset="0.651981" stop-color="#FE6E36"/>
</linearGradient>
<linearGradient id="paint123_linear_2071_12706" x1="1242.39" y1="718.781" x2="1517.89" y2="252.781" gradientUnits="userSpaceOnUse">
<stop stop-color="#443F3C" stop-opacity="0.2"/>
<stop offset="0.651981" stop-color="#FE6E36"/>
</linearGradient>
<linearGradient id="paint124_linear_2071_12706" x1="1242.39" y1="718.781" x2="1517.89" y2="252.781" gradientUnits="userSpaceOnUse">
<stop stop-color="#443F3C" stop-opacity="0.2"/>
<stop offset="0.651981" stop-color="#FE6E36"/>
</linearGradient>
<linearGradient id="paint125_linear_2071_12706" x1="1242.39" y1="718.781" x2="1517.89" y2="252.781" gradientUnits="userSpaceOnUse">
<stop stop-color="#443F3C" stop-opacity="0.2"/>
<stop offset="0.651981" stop-color="#FE6E36"/>
</linearGradient>
</defs>
</svg>
