<svg width="55" height="55" viewBox="0 0 55 55" fill="none" xmlns="http://www.w3.org/2000/svg">
<path d="M27.4997 35.5002C29.6597 35.5002 31.4997 34.7002 33.1263 33.1268C34.6997 31.5002 35.4997 29.6602 35.4997 27.5002C35.4997 25.3402 34.6997 23.5002 33.1263 21.8735C31.4997 20.3002 29.6597 19.5002 27.4997 19.5002C25.3397 19.5002 23.4997 20.3002 21.873 21.8735C20.2997 23.5002 19.4997 25.3402 19.4997 27.5002C19.4997 29.6602 20.2997 31.5002 21.873 33.1268C23.4997 34.7002 25.3397 35.5002 27.4997 35.5002ZM27.4997 0.833496C34.833 0.833496 41.0997 3.50016 46.2997 8.70016C51.4997 13.9002 54.1663 20.1668 54.1663 27.5002V31.3668C54.1663 34.0335 53.233 36.3002 51.4997 38.1668C49.633 39.9535 47.4997 40.8335 44.833 40.8335C41.633 40.8335 38.993 39.5002 36.993 36.8335C34.3263 39.5002 31.1797 40.8335 27.4997 40.8335C23.8463 40.8335 20.6997 39.5002 18.0597 36.9402C15.4997 34.3002 14.1663 31.1802 14.1663 27.5002C14.1663 23.8468 15.4997 20.7002 18.0597 18.0602C20.6997 15.5002 23.8463 14.1668 27.4997 14.1668C31.1797 14.1668 34.2997 15.5002 36.9397 18.0602C39.4997 20.7002 40.833 23.8468 40.833 27.5002V31.3668C40.833 32.4602 41.2597 33.4202 42.0597 34.2468C42.8597 35.0735 43.793 35.5002 44.833 35.5002C45.953 35.5002 46.8863 35.0735 47.6863 34.2468C48.4863 33.4202 48.833 32.4602 48.833 31.3668V27.5002C48.833 21.6602 46.7797 16.6468 42.5663 12.4335C38.353 8.22016 33.3397 6.16683 27.4997 6.16683C21.6597 6.16683 16.6463 8.22016 12.433 12.4335C8.21967 16.6468 6.16634 21.6602 6.16634 27.5002C6.16634 33.3402 8.21967 38.3535 12.433 42.5668C16.6463 46.7802 21.6597 48.8335 27.4997 48.8335H40.833V54.1668H27.4997C20.1663 54.1668 13.8997 51.5002 8.69967 46.3002C3.49967 41.1002 0.833008 34.8335 0.833008 27.5002C0.833008 20.1668 3.49967 13.9002 8.69967 8.70016C13.8997 3.50016 20.1663 0.833496 27.4997 0.833496Z" fill="currentColor"/>
</svg>
