<svg width="27" height="27" viewBox="0 0 27 27" fill="none" xmlns="http://www.w3.org/2000/svg">
<path d="M26.427 13.4536V14.3271C26.0501 14.3271 25.6767 14.3174 25.3044 14.3292C23.6627 14.3821 22.0201 14.4355 20.3986 14.7331C19.0655 14.9776 17.7973 15.3861 16.7127 16.2391C15.4933 17.1974 14.7831 18.4748 14.3896 19.9505C14.0291 21.3029 13.8985 22.6877 13.829 24.0787C13.7848 24.9578 13.7745 25.8385 13.7478 26.7182C13.7452 26.8035 13.7303 26.8878 13.719 26.99H12.9234C12.9234 26.727 12.9357 26.4567 12.9213 26.1874C12.8478 24.8145 12.802 23.4379 12.6786 22.0691C12.5665 20.8256 12.3006 19.6062 11.7493 18.4702C10.8554 16.627 9.35268 15.5321 7.41022 14.991C6.16821 14.6452 4.89484 14.4982 3.61272 14.4289C2.56203 14.3718 1.50876 14.3554 0.457044 14.3204C0.398415 14.3184 0.339786 14.3112 0.263672 14.305V13.504C0.433901 13.504 0.602588 13.5101 0.77076 13.5029C1.99322 13.4505 3.21826 13.4295 4.43763 13.3329C5.98358 13.21 7.51256 12.9696 8.9176 12.2528C10.6441 11.3726 11.6896 9.94207 12.225 8.11128C12.5598 6.96697 12.7238 5.79183 12.7912 4.60539C12.8612 3.37733 12.8956 2.1467 12.946 0.917609C12.947 0.893459 12.9563 0.869822 12.9661 0.82666H13.774C13.774 1.38725 13.7586 1.93962 13.7766 2.49097C13.8378 4.33563 13.9257 6.17824 14.4174 7.97306C15.1585 10.6784 16.9389 12.2929 19.6456 12.9331C21.1345 13.2856 22.6511 13.4068 24.175 13.45C24.9181 13.4711 25.6628 13.4536 26.427 13.4536Z" fill="currentColor"/>
</svg>
