<svg width="54" height="48" viewBox="0 0 54 48" fill="none" xmlns="http://www.w3.org/2000/svg">
<path d="M3 40V16C3 14.5855 3.5619 13.229 4.5621 12.2288C5.56229 11.2286 6.91885 10.6667 8.33333 10.6667H10.8133C11.6912 10.6668 12.5554 10.4503 13.3295 10.0362C14.1036 9.62223 14.7635 9.02356 15.2507 8.29334L17.416 5.04C17.9032 4.30979 18.5631 3.71111 19.3372 3.2971C20.1112 2.88309 20.9755 2.66654 21.8533 2.66667H32.1467C33.0245 2.66654 33.8888 2.88309 34.6628 3.2971C35.4369 3.71111 36.0968 4.30979 36.584 5.04L38.7493 8.29334C39.2365 9.02356 39.8964 9.62223 40.6705 10.0362C41.4446 10.4503 42.3088 10.6668 43.1867 10.6667H45.6667C47.0812 10.6667 48.4377 11.2286 49.4379 12.2288C50.4381 13.229 51 14.5855 51 16V40C51 41.4145 50.4381 42.771 49.4379 43.7712C48.4377 44.7714 47.0812 45.3333 45.6667 45.3333H8.33333C6.91885 45.3333 5.56229 44.7714 4.5621 43.7712C3.5619 42.771 3 41.4145 3 40Z" stroke="currentColor" stroke-width="5" stroke-linecap="round" stroke-linejoin="round"/>
<path fill-rule="evenodd" clip-rule="evenodd" d="M27 21.1667C23.9624 21.1667 21.5 23.6291 21.5 26.6667C21.5 29.7042 23.9624 32.1667 27 32.1667C30.0376 32.1667 32.5 29.7042 32.5 26.6667C32.5 23.6291 30.0376 21.1667 27 21.1667ZM16.5 26.6667C16.5 20.8677 21.201 16.1667 27 16.1667C32.799 16.1667 37.5 20.8677 37.5 26.6667C37.5 32.4657 32.799 37.1667 27 37.1667C21.201 37.1667 16.5 32.4657 16.5 26.6667Z" fill="currentColor"/>
</svg>
