<svg width="48" height="48" viewBox="0 0 48 48" fill="none" xmlns="http://www.w3.org/2000/svg">
<path fill-rule="evenodd" clip-rule="evenodd" d="M44.4351 3.56555C45.4114 4.54186 45.4114 6.12477 44.4351 7.10108L7.10175 44.4344C6.12544 45.4107 4.54253 45.4107 3.56622 44.4344C2.58991 43.4581 2.58991 41.8752 3.56622 40.8989L40.8995 3.56555C41.8759 2.58924 43.4588 2.58924 44.4351 3.56555Z" fill="currentColor"/>
<path fill-rule="evenodd" clip-rule="evenodd" d="M10.667 5.16666C7.62943 5.16666 5.16699 7.62909 5.16699 10.6667C5.16699 13.7042 7.62943 16.1667 10.667 16.1667C13.7046 16.1667 16.167 13.7042 16.167 10.6667C16.167 7.62909 13.7046 5.16666 10.667 5.16666ZM0.166992 10.6667C0.166992 4.86767 4.868 0.166656 10.667 0.166656C16.466 0.166656 21.167 4.86767 21.167 10.6667C21.167 16.4656 16.466 21.1667 10.667 21.1667C4.868 21.1667 0.166992 16.4656 0.166992 10.6667Z" fill="currentColor"/>
<path fill-rule="evenodd" clip-rule="evenodd" d="M37.334 31.8333C34.2964 31.8333 31.834 34.2957 31.834 37.3333C31.834 40.3709 34.2964 42.8333 37.334 42.8333C40.3716 42.8333 42.834 40.3709 42.834 37.3333C42.834 34.2957 40.3716 31.8333 37.334 31.8333ZM26.834 37.3333C26.834 31.5343 31.535 26.8333 37.334 26.8333C43.133 26.8333 47.834 31.5343 47.834 37.3333C47.834 43.1323 43.133 47.8333 37.334 47.8333C31.535 47.8333 26.834 43.1323 26.834 37.3333Z" fill="currentColor"/>
</svg>
