<svg width="54" height="59" viewBox="0 0 54 59" fill="none" xmlns="http://www.w3.org/2000/svg">
<path d="M45.3337 18.8333H8.00033C5.05481 18.8333 2.66699 21.2211 2.66699 24.1666V50.8333C2.66699 53.7788 5.05481 56.1666 8.00033 56.1666H45.3337C48.2792 56.1666 50.667 53.7788 50.667 50.8333V24.1666C50.667 21.2211 48.2792 18.8333 45.3337 18.8333Z" stroke="currentColor" stroke-width="5" stroke-linecap="round" stroke-linejoin="round"/>
<path d="M26.667 10.8333C26.667 9.25101 26.1978 7.70429 25.3187 6.38869C24.4397 5.0731 23.1903 4.04772 21.7285 3.44222C20.2667 2.83672 18.6581 2.67829 17.1063 2.98697C15.5544 3.29566 14.129 4.05758 13.0101 5.1764C11.8913 6.29522 11.1294 7.72069 10.8207 9.27253C10.512 10.8244 10.6705 12.4329 11.276 13.8947C11.8815 15.3565 12.9068 16.606 14.2224 17.485C15.538 18.3641 17.0847 18.8333 18.667 18.8333M26.667 10.8333C26.667 9.25101 27.1362 7.70429 28.0152 6.38869C28.8943 5.0731 30.1437 4.04772 31.6055 3.44222C33.0673 2.83672 34.6759 2.67829 36.2277 2.98697C37.7796 3.29566 39.205 4.05758 40.3238 5.1764C41.4427 6.29522 42.2046 7.72069 42.5133 9.27253C42.822 10.8244 42.6635 12.4329 42.058 13.8947C41.4525 15.3565 40.4271 16.606 39.1116 17.485C37.796 18.3641 36.2492 18.8333 34.667 18.8333M26.667 10.8333V56.1666M50.667 37.4999H2.66699" stroke="currentColor" stroke-width="5" stroke-linecap="round" stroke-linejoin="round"/>
</svg>
