<svg width="48" height="48" viewBox="0 0 48 48" fill="none" xmlns="http://www.w3.org/2000/svg">
<path d="M39.3333 0C41.6319 0 43.8363 0.913092 45.4616 2.53841C47.0869 4.16372 48 6.36812 48 8.66667V39.3333C48 41.6319 47.0869 43.8363 45.4616 45.4616C43.8363 47.0869 41.6319 48 39.3333 48H8.66667C6.36812 48 4.16372 47.0869 2.53841 45.4616C0.913092 43.8363 0 41.6319 0 39.3333V8.66667C0 6.36812 0.913092 4.16372 2.53841 2.53841C4.16372 0.913092 6.36812 0 8.66667 0H39.3333ZM44 14.6667H4V39.3333C4 41.9093 6.09067 44 8.66667 44H39.3333C40.571 44 41.758 43.5083 42.6332 42.6332C43.5083 41.758 44 40.571 44 39.3333V14.6667ZM12.6667 30.6667C13.5507 30.6667 14.3986 31.0179 15.0237 31.643C15.6488 32.2681 16 33.1159 16 34C16 34.8841 15.6488 35.7319 15.0237 36.357C14.3986 36.9821 13.5507 37.3333 12.6667 37.3333C11.7826 37.3333 10.9348 36.9821 10.3096 36.357C9.68452 35.7319 9.33333 34.8841 9.33333 34C9.33333 33.1159 9.68452 32.2681 10.3096 31.643C10.9348 31.0179 11.7826 30.6667 12.6667 30.6667ZM24 30.6667C24.8841 30.6667 25.7319 31.0179 26.357 31.643C26.9821 32.2681 27.3333 33.1159 27.3333 34C27.3333 34.8841 26.9821 35.7319 26.357 36.357C25.7319 36.9821 24.8841 37.3333 24 37.3333C23.1159 37.3333 22.2681 36.9821 21.643 36.357C21.0179 35.7319 20.6667 34.8841 20.6667 34C20.6667 33.1159 21.0179 32.2681 21.643 31.643C22.2681 31.0179 23.1159 30.6667 24 30.6667ZM12.6667 20C13.5507 20 14.3986 20.3512 15.0237 20.9763C15.6488 21.6014 16 22.4493 16 23.3333C16 24.2174 15.6488 25.0652 15.0237 25.6904C14.3986 26.3155 13.5507 26.6667 12.6667 26.6667C11.7826 26.6667 10.9348 26.3155 10.3096 25.6904C9.68452 25.0652 9.33333 24.2174 9.33333 23.3333C9.33333 22.4493 9.68452 21.6014 10.3096 20.9763C10.9348 20.3512 11.7826 20 12.6667 20ZM24 20C24.8841 20 25.7319 20.3512 26.357 20.9763C26.9821 21.6014 27.3333 22.4493 27.3333 23.3333C27.3333 24.2174 26.9821 25.0652 26.357 25.6904C25.7319 26.3155 24.8841 26.6667 24 26.6667C23.1159 26.6667 22.2681 26.3155 21.643 25.6904C21.0179 25.0652 20.6667 24.2174 20.6667 23.3333C20.6667 22.4493 21.0179 21.6014 21.643 20.9763C22.2681 20.3512 23.1159 20 24 20ZM35.3333 20C36.2174 20 37.0652 20.3512 37.6904 20.9763C38.3155 21.6014 38.6667 22.4493 38.6667 23.3333C38.6667 24.2174 38.3155 25.0652 37.6904 25.6904C37.0652 26.3155 36.2174 26.6667 35.3333 26.6667C34.4493 26.6667 33.6014 26.3155 32.9763 25.6904C32.3512 25.0652 32 24.2174 32 23.3333C32 22.4493 32.3512 21.6014 32.9763 20.9763C33.6014 20.3512 34.4493 20 35.3333 20ZM39.3333 4H8.66667C7.42899 4 6.24201 4.49167 5.36684 5.36684C4.49167 6.24201 4 7.42899 4 8.66667V10.6667H44V8.66667C44 7.42899 43.5083 6.24201 42.6332 5.36684C41.758 4.49167 40.571 4 39.3333 4Z" fill="currentColor"/>
</svg>
