<svg width="48" height="44" viewBox="0 0 48 44" fill="none" xmlns="http://www.w3.org/2000/svg">
<path d="M44.2398 21.3867L29.1465 36.4533L21.5998 28.9067L17.8398 32.6933L29.1465 44L47.9998 25.1467L44.2398 21.3867Z" fill="currentColor"/>
<path d="M21.1859 8.69034C21.1859 7.36458 20.7458 6.29072 19.8656 5.46875C18.9854 4.64678 17.8276 4.2358 16.3922 4.2358H9.89219V13.1449H16.3922C17.8276 13.1449 18.9854 12.7339 19.8656 11.9119C20.7458 11.09 21.1859 10.0161 21.1859 8.69034ZM26 8.69034C26 11.2491 25.1435 13.3371 23.4305 14.9545C21.7174 16.572 19.5068 17.3807 16.7984 17.3807H9.89219V19.7273H20.15C20.3396 19.7273 20.4953 19.7869 20.6172 19.9062C20.7391 20.0256 20.8 20.178 20.8 20.3636V22.9091C20.8 23.0947 20.7391 23.2472 20.6172 23.3665C20.4953 23.4858 20.3396 23.5455 20.15 23.5455H9.89219V27.3636C9.89219 27.5492 9.82786 27.7017 9.69922 27.821C9.57057 27.9403 9.41823 28 9.24219 28H5.85C5.66042 28 5.50469 27.9403 5.38281 27.821C5.26094 27.7017 5.2 27.5492 5.2 27.3636V23.5455H0.65C0.460417 23.5455 0.304688 23.4858 0.182812 23.3665C0.0609375 23.2472 0 23.0947 0 22.9091V20.3636C0 20.178 0.0609375 20.0256 0.182812 19.9062C0.304688 19.7869 0.460417 19.7273 0.65 19.7273H5.2V17.3807H0.65C0.460417 17.3807 0.304688 17.321 0.182812 17.2017C0.0609375 17.0824 0 16.9299 0 16.7443V13.7812C0 13.6089 0.0609375 13.4598 0.182812 13.3338C0.304688 13.2079 0.460417 13.1449 0.65 13.1449H5.2V0.636364C5.2 0.450758 5.26094 0.298295 5.38281 0.178977C5.50469 0.0596591 5.66042 0 5.85 0H16.7984C19.5068 0 21.7174 0.808712 23.4305 2.42614C25.1435 4.04356 26 6.13163 26 8.69034Z" fill="currentColor"/>
</svg>
