<svg width="55" height="55" viewBox="0 0 55 55" fill="none" xmlns="http://www.w3.org/2000/svg">
<path d="M46.3001 8.59315C43.855 6.1241 40.9429 4.16639 37.7335 2.83412C34.5241 1.50184 31.0817 0.821639 27.6068 0.833152C13.0468 0.833152 1.18013 12.6998 1.18013 27.2598C1.18013 31.9265 2.4068 36.4598 4.70013 40.4598L0.966797 54.1665L14.9668 50.4865C18.8335 52.5932 23.1801 53.7132 27.6068 53.7132C42.1668 53.7132 54.0335 41.8465 54.0335 27.2865C54.0335 20.2198 51.2868 13.5798 46.3001 8.59315ZM27.6068 49.2332C23.6601 49.2332 19.7935 48.1665 16.4068 46.1665L15.6068 45.6865L7.2868 47.8731L9.50013 39.7665L8.9668 38.9398C6.77359 35.4386 5.60926 31.3912 5.6068 27.2598C5.6068 15.1532 15.4735 5.28649 27.5801 5.28649C33.4468 5.28649 38.9668 7.57982 43.1001 11.7398C45.1471 13.7768 46.7692 16.1999 47.8725 18.8687C48.9757 21.5375 49.538 24.3987 49.5268 27.2865C49.5801 39.3932 39.7135 49.2332 27.6068 49.2332ZM39.6601 32.8065C38.9935 32.4865 35.7401 30.8865 35.1535 30.6465C34.5401 30.4332 34.1135 30.3265 33.6601 30.9665C33.2068 31.6332 31.9535 33.1265 31.5801 33.5532C31.2068 34.0065 30.8068 34.0598 30.1401 33.7132C29.4735 33.3932 27.3401 32.6732 24.8335 30.4332C22.8601 28.6732 21.5535 26.5132 21.1535 25.8465C20.7801 25.1798 21.1001 24.8332 21.4468 24.4865C21.7401 24.1932 22.1135 23.7132 22.4335 23.3398C22.7535 22.9665 22.8868 22.6732 23.1001 22.2465C23.3135 21.7932 23.2068 21.4198 23.0468 21.0998C22.8868 20.7798 21.5535 17.5265 21.0201 16.1932C20.4868 14.9132 19.9268 15.0732 19.5268 15.0465H18.2468C17.7935 15.0465 17.1001 15.2065 16.4868 15.8732C15.9001 16.5398 14.1935 18.1398 14.1935 21.3932C14.1935 24.6465 16.5668 27.7932 16.8868 28.2198C17.2068 28.6732 21.5535 35.3398 28.1668 38.1932C29.7401 38.8865 30.9668 39.2865 31.9268 39.5798C33.5001 40.0865 34.9401 40.0065 36.0868 39.8465C37.3668 39.6598 40.0068 38.2465 40.5401 36.6998C41.1001 35.1532 41.1001 33.8465 40.9135 33.5532C40.7268 33.2598 40.3268 33.1265 39.6601 32.8065Z" fill="currentColor"/>
</svg>
