<svg width="60" height="53" viewBox="0 0 60 53" fill="none" xmlns="http://www.w3.org/2000/svg">
<path fill-rule="evenodd" clip-rule="evenodd" d="M50.7083 0.317588C52.8974 -0.186493 55.3266 -0.280553 57.2474 1.49702C59.1248 3.23454 59.3117 5.65689 59.0957 7.92875C58.8818 10.1794 58.1826 13.0893 57.3357 16.6141L57.2897 16.8054L57.2895 16.8065L50.9164 43.3867L50.8749 43.5598C50.337 45.8031 49.8706 47.7483 49.3062 49.1713C48.736 50.6086 47.7633 52.3111 45.7242 52.8502C43.657 53.3977 41.9796 52.3623 40.8017 51.3658C39.6472 50.3892 38.343 48.9055 36.8512 47.2084L36.7281 47.0683L30.1568 39.597L26.8619 44.1804C26.8299 44.2248 26.7977 44.2697 26.7658 44.3141C26.0773 45.2717 25.4077 46.2032 24.783 46.8501C24.1619 47.4934 22.9145 48.5672 21.1432 48.2161C19.3933 47.8693 18.6351 46.4228 18.2923 45.6033C17.9424 44.7668 17.6506 43.6471 17.3482 42.487C17.3352 42.437 17.3222 42.387 17.3091 42.3369C17.309 42.3366 17.3092 42.3371 17.3091 42.3369L16.0056 37.3602C16.0056 37.3601 16.0056 37.3603 16.0056 37.3602C15.252 34.4845 15.0195 33.7925 14.6214 33.2958C14.5664 33.2283 14.5096 33.1632 14.451 33.1004C14.0333 32.654 13.4382 32.3557 10.7608 31.2818C10.7605 31.2817 10.761 31.2819 10.7608 31.2818L10.5845 31.2112C8.00872 30.1792 5.84016 29.3104 4.31243 28.4503C2.84644 27.6249 1.07584 26.3294 0.861422 24.069C0.824746 23.7145 0.824841 23.3573 0.861691 23.0028C1.08079 20.7398 2.85933 19.4489 4.32741 18.6285C5.85617 17.7742 8.02451 16.9127 10.5994 15.8896C10.6605 15.8654 10.7219 15.841 10.7834 15.8165L42.4265 3.24839L42.6371 3.16478C45.8721 1.881 48.5723 0.809438 50.7083 0.317588ZM26.7185 35.8139C26.4635 35.5374 26.2157 35.2527 26.0121 34.9749C25.6048 34.4191 25.1666 33.6233 25.1666 32.5745C25.1666 31.5298 25.6006 30.7346 26.0094 30.1754C26.3564 29.7008 26.829 29.2102 27.2519 28.7713C27.2721 28.7504 27.2922 28.7295 27.3121 28.7088C27.3127 28.7083 27.3132 28.7077 27.3137 28.7072L36.8387 18.7797C37.7946 17.7834 39.3771 17.7506 40.3734 18.7065C41.3697 19.6624 41.4025 21.245 40.4466 22.2413L30.9155 32.1752C30.7692 32.3271 30.6439 32.4574 30.534 32.5736C30.6449 32.6912 30.7711 32.823 30.9189 32.9773C30.9193 32.9778 30.9198 32.9782 30.9202 32.9787L31.7629 33.8559C31.7882 33.8823 31.813 33.9093 31.8372 33.9367L40.4825 43.7661C42.139 45.6504 43.1965 46.8426 44.0309 47.5485C44.1921 47.6848 44.321 47.7824 44.4214 47.8516C44.4857 47.7312 44.5655 47.5619 44.6584 47.3277C45.0735 46.2811 45.4604 44.6966 46.0542 42.2209C46.0542 42.221 46.0542 42.2209 46.0542 42.2209L52.4278 15.6385C53.3335 11.8686 53.942 9.30876 54.1182 7.45558C54.2962 5.58277 53.9418 5.25045 53.8512 5.16665C53.8496 5.16516 53.8478 5.16336 53.8456 5.16126C53.7846 5.10153 53.4858 4.80886 51.8303 5.19008C50.1097 5.58626 47.7648 6.5094 44.2721 7.89527C44.2719 7.89538 44.2724 7.89517 44.2721 7.89527L12.6298 20.4631C9.82945 21.5759 7.97279 22.3191 6.7665 22.9932C6.32499 23.2399 6.07193 23.4232 5.93175 23.5415C6.07118 23.6602 6.32366 23.8446 6.76548 24.0934C7.96902 24.771 9.82294 25.5196 12.6205 26.6405C12.7501 26.6925 12.8792 26.7441 13.0062 26.7949C15.0895 27.6273 16.828 28.322 18.1032 29.6855L18.1049 29.6874C18.2437 29.836 18.3772 29.9894 18.5056 30.1473L18.5125 30.1558C19.6693 31.5924 20.1469 33.4252 20.7278 35.6542C20.7655 35.7987 20.8036 35.9449 20.8423 36.0928L22.147 41.0742C22.2229 41.3652 22.2925 41.6319 22.3578 41.878C22.4952 41.6884 22.6424 41.4838 22.802 41.2619C22.8019 41.2621 22.8022 41.2617 22.802 41.2619L26.7185 35.8139ZM5.77431 23.3815C5.77481 23.3815 5.77857 23.3864 5.78409 23.3961C5.77657 23.3864 5.77381 23.3815 5.77431 23.3815ZM5.78197 23.6878C5.77656 23.6972 5.7729 23.7019 5.77242 23.7019C5.77194 23.7019 5.77465 23.6972 5.78197 23.6878ZM44.6786 48.0029C44.6991 48.0071 44.7102 48.0118 44.7107 48.013C44.7111 48.0143 44.7009 48.0122 44.6786 48.0029ZM44.2413 48.1231C44.2411 48.122 44.2479 48.1141 44.2622 48.1026C44.2486 48.1185 44.2415 48.1242 44.2413 48.1231Z" fill="currentColor"/>
</svg>
