<svg width="178" height="57" viewBox="0 0 178 57" fill="none" xmlns="http://www.w3.org/2000/svg">
<path d="M58.8167 25.442C57.4804 25.442 56.2456 25.2148 55.1123 24.7602C53.9959 24.2883 53.0655 23.589 52.3213 22.6625C51.5939 21.736 51.1288 20.5997 50.9258 19.2537H54.5287C54.6978 19.8306 54.9769 20.32 55.366 20.7221C55.7719 21.1242 56.2709 21.4301 56.863 21.6399C57.455 21.8321 58.1147 21.9283 58.842 21.9283C59.84 21.9283 60.6773 21.7447 61.3539 21.3776C62.0305 20.9931 62.5464 20.4774 62.9016 19.8306C63.2569 19.1838 63.4514 18.4408 63.4852 17.6017H56.4316V14.2715H63.4852C63.4345 13.5199 63.2399 12.8119 62.9016 12.1476C62.5802 11.4833 62.0897 10.9501 61.43 10.5481C60.7703 10.1285 59.9161 9.91873 58.8674 9.91873C58.1062 9.91873 57.4296 10.0324 56.8376 10.2596C56.2625 10.4869 55.7889 10.8015 55.4167 11.2036C55.0446 11.6057 54.7909 12.0864 54.6555 12.6458H51.078C51.2979 11.2298 51.7969 10.0673 52.575 9.1583C53.3531 8.2318 54.3088 7.55003 55.4421 7.113C56.5754 6.67597 57.7764 6.45746 59.045 6.45746C60.449 6.45746 61.6668 6.69345 62.6987 7.16545C63.7305 7.63744 64.5847 8.31046 65.2613 9.18452C65.9548 10.0411 66.4707 11.0463 66.809 12.2C67.1473 13.3538 67.3165 14.6124 67.3165 15.976C67.3165 17.8639 66.9866 19.5246 66.3269 20.9581C65.6842 22.3741 64.7285 23.4754 63.4598 24.262C62.2081 25.0487 60.6604 25.442 58.8167 25.442Z" fill="currentColor"/>
<path d="M69.6196 25.2322V11.4134H76.1404C76.7155 11.4134 77.2821 11.4571 77.8403 11.5445C78.4154 11.6319 78.9398 11.798 79.4134 12.0427C79.904 12.2874 80.293 12.6545 80.5806 13.144C80.885 13.616 81.0373 14.2453 81.0373 15.032C81.0373 15.4515 80.9696 15.8361 80.8343 16.1857C80.7159 16.5354 80.5467 16.85 80.3268 17.1297C80.1069 17.3919 79.8617 17.6017 79.591 17.759C80.2676 18.0213 80.7666 18.4233 81.088 18.9652C81.4263 19.4897 81.5955 20.154 81.5955 20.9581C81.5955 21.7622 81.4348 22.4352 81.1134 22.9772C80.8089 23.5191 80.403 23.9561 79.8955 24.2883C79.3881 24.6204 78.8383 24.8651 78.2463 25.0225C77.6543 25.1623 77.0792 25.2322 76.521 25.2322H69.6196ZM73.1972 22.0594H76.2165C76.5717 22.0594 76.8931 22.0157 77.1806 21.9283C77.4682 21.8234 77.6881 21.6748 77.8403 21.4825C78.0095 21.2902 78.0941 21.0368 78.0941 20.7221C78.0941 20.4249 78.0349 20.1977 77.9165 20.0403C77.798 19.8655 77.6374 19.7344 77.4344 19.647C77.2314 19.5421 77.003 19.4722 76.7493 19.4372C76.4956 19.4023 76.2249 19.3848 75.9374 19.3848H73.1972V22.0594ZM73.1972 16.9724H75.4299C75.6837 16.9724 75.9374 16.9549 76.1911 16.9199C76.4618 16.8675 76.707 16.7888 76.9269 16.6839C77.1468 16.5791 77.316 16.4479 77.4344 16.2906C77.5697 16.1158 77.6374 15.8973 77.6374 15.6351C77.6374 15.268 77.5443 15.0058 77.3583 14.8484C77.1891 14.6736 76.9607 14.5687 76.6732 14.5338C76.3856 14.4813 76.0812 14.4551 75.7598 14.4551H73.1972V16.9724Z" fill="currentColor"/>
<path d="M90.2077 25.4158C88.8545 25.4158 87.6704 25.1361 86.6555 24.5767C85.6406 23.9998 84.8541 23.1869 84.2959 22.1381C83.7377 21.0717 83.4586 19.8131 83.4586 18.3621C83.4586 16.8762 83.7377 15.6001 84.2959 14.5338C84.871 13.4499 85.6575 12.6196 86.6555 12.0427C87.6704 11.4658 88.846 11.1774 90.1823 11.1774C91.5355 11.1774 92.7111 11.4746 93.7091 12.0689C94.7071 12.6633 95.4852 13.4936 96.0434 14.56C96.6016 15.6263 96.8807 16.9025 96.8807 18.3884C96.8807 19.8393 96.6016 21.0979 96.0434 22.1643C95.5021 23.2132 94.7325 24.0173 93.7345 24.5767C92.7534 25.1361 91.5778 25.4158 90.2077 25.4158ZM90.1569 22.0594C90.9519 22.0594 91.5778 21.8846 92.0345 21.535C92.5081 21.1853 92.8464 20.7308 93.0494 20.1714C93.2693 19.612 93.3792 19.0177 93.3792 18.3884C93.3792 17.759 93.2693 17.1559 93.0494 16.5791C92.8464 15.9847 92.5081 15.504 92.0345 15.1369C91.5778 14.7523 90.9519 14.56 90.1569 14.56C89.3958 14.56 88.7784 14.7523 88.3047 15.1369C87.8311 15.504 87.4844 15.976 87.2645 16.5528C87.0615 17.1297 86.96 17.7416 86.96 18.3884C86.96 19.0177 87.0615 19.612 87.2645 20.1714C87.4844 20.7308 87.8311 21.1853 88.3047 21.535C88.7784 21.8846 89.3958 22.0594 90.1569 22.0594Z" fill="currentColor"/>
<path d="M97.94 25.2585V21.9021C98.329 21.9021 98.6504 21.8059 98.9041 21.6136C99.1748 21.4039 99.4031 21.1329 99.5892 20.8008C99.7922 20.4162 99.9359 19.9442 100.021 19.3848C100.105 18.8254 100.164 18.2747 100.198 17.7328C100.249 16.9811 100.283 16.2032 100.3 15.3991C100.333 14.5949 100.35 13.8433 100.35 13.144C100.367 12.4448 100.376 11.8679 100.376 11.4134H110.804V25.2322H107.277V14.6911H103.623C103.623 15.2505 103.615 15.8711 103.598 16.5528C103.581 17.2171 103.547 17.8901 103.497 18.5719C103.446 19.2362 103.378 19.8743 103.294 20.4861C103.192 21.1679 103.04 21.8234 102.837 22.4527C102.651 23.0646 102.363 23.5977 101.974 24.0523C101.568 24.5243 101.052 24.8476 100.426 25.0225C99.8006 25.1798 98.9718 25.2585 97.94 25.2585Z" fill="currentColor"/>
<path d="M125.626 25.4158C123.8 25.4158 122.328 24.9263 121.212 23.9474C120.112 22.9509 119.444 21.6224 119.207 19.9617H117.177V25.2322H113.625V11.4134H117.177V16.6839H119.207C119.376 15.6001 119.732 14.6474 120.273 13.8258C120.814 13.0042 121.533 12.3574 122.429 11.8854C123.326 11.4134 124.383 11.1774 125.601 11.1774C126.937 11.1774 128.096 11.4658 129.077 12.0427C130.075 12.6196 130.836 13.4499 131.361 14.5338C131.902 15.6001 132.173 16.8762 132.173 18.3621C132.173 19.7781 131.919 21.0193 131.411 22.0856C130.904 23.152 130.16 23.9736 129.179 24.5505C128.197 25.1273 127.013 25.4158 125.626 25.4158ZM125.55 22.1118C126.328 22.1118 126.937 21.9283 127.377 21.5612C127.834 21.1941 128.164 20.7221 128.367 20.1452C128.57 19.5509 128.671 18.939 128.671 18.3097C128.671 17.6804 128.57 17.0773 128.367 16.5004C128.164 15.906 127.834 15.434 127.377 15.0844C126.937 14.7173 126.328 14.5338 125.55 14.5338C124.806 14.5338 124.197 14.7086 123.723 15.0582C123.267 15.4078 122.937 15.8798 122.734 16.4742C122.531 17.051 122.429 17.6629 122.429 18.3097C122.429 18.974 122.531 19.5946 122.734 20.1714C122.937 20.7483 123.267 21.2203 123.723 21.5874C124.197 21.937 124.806 22.1118 125.55 22.1118Z" fill="currentColor"/>
<path d="M144.615 29.1131V25.2322H134.364V11.4134H137.916V21.9545H142.864V11.4134H146.442V21.9545H148.167V29.1131H144.615Z" fill="currentColor"/>
<path d="M149.85 25.2322V11.4134H153.403V19.5946C153.521 19.4197 153.648 19.2449 153.783 19.0701C153.919 18.8778 154.037 18.7118 154.138 18.5719L159.492 11.4134H162.588V25.2322H159.01V17.2084C158.892 17.4007 158.756 17.593 158.604 17.7853C158.469 17.9601 158.333 18.1349 158.198 18.3097L153.047 25.2322H149.85Z" fill="currentColor"/>
<path d="M164.549 25.2322L168.177 20.0666C167.331 19.8043 166.638 19.3236 166.097 18.6244C165.555 17.9076 165.285 17.051 165.285 16.0546C165.285 15.1281 165.428 14.3677 165.716 13.7733C166.004 13.1615 166.401 12.6895 166.909 12.3574C167.433 12.0077 168.025 11.763 168.685 11.6231C169.344 11.4833 170.046 11.4134 170.791 11.4134H177.083V25.2322H173.556V20.7745H171.552L168.735 25.2322H164.549ZM171.603 17.759H173.556V14.56H170.968C170.63 14.56 170.325 14.5862 170.055 14.6386C169.801 14.6911 169.581 14.7785 169.395 14.9009C169.209 15.0232 169.065 15.1893 168.964 15.3991C168.862 15.5914 168.812 15.8274 168.812 16.1071C168.812 16.4742 168.896 16.7713 169.065 16.9986C169.251 17.2084 169.48 17.3657 169.75 17.4706C170.021 17.5755 170.317 17.6541 170.638 17.7066C170.977 17.7416 171.298 17.759 171.603 17.759Z" fill="currentColor"/>
<path d="M51.4079 50.5426V31.558H54.7317L54.9093 33.3149C55.4506 32.5807 56.0933 32.0737 56.8376 31.794C57.5819 31.4968 58.3684 31.3482 59.1972 31.3482C60.4659 31.3482 61.5231 31.6629 62.3688 32.2922C63.2146 32.9215 63.8573 33.7781 64.2971 34.862C64.7369 35.9283 64.9568 37.1345 64.9568 38.4806C64.9568 39.8266 64.7369 41.0415 64.2971 42.1254C63.8573 43.1917 63.1892 44.0308 62.2927 44.6427C61.3962 45.2545 60.2629 45.5604 58.8928 45.5604C58.2669 45.5604 57.7003 45.4905 57.1928 45.3507C56.7023 45.2108 56.2709 45.0185 55.8988 44.7738C55.5436 44.529 55.2307 44.2756 54.96 44.0134V50.5426H51.4079ZM58.3092 42.2565C59.1042 42.2565 59.7301 42.0729 60.1868 41.7058C60.6435 41.3387 60.9649 40.8755 61.1509 40.3161C61.337 39.7392 61.43 39.1448 61.43 38.533C61.43 37.8687 61.3285 37.2394 61.1256 36.645C60.9226 36.0507 60.5843 35.5787 60.1107 35.2291C59.6539 34.862 59.0281 34.6784 58.2331 34.6784C57.5226 34.6784 56.9222 34.862 56.4316 35.2291C55.9411 35.5787 55.569 36.0419 55.3152 36.6188C55.0615 37.1957 54.9346 37.8163 54.9346 38.4806C54.9346 39.1448 55.0531 39.7654 55.2899 40.3423C55.5436 40.9192 55.9157 41.3824 56.4063 41.7321C56.9137 42.0817 57.548 42.2565 58.3092 42.2565Z" fill="currentColor"/>
<path d="M73.2566 45.5604C71.8527 45.5604 70.6602 45.272 69.6791 44.6951C68.698 44.1182 67.9453 43.3054 67.4209 42.2565C66.8966 41.1901 66.6344 39.949 66.6344 38.533C66.6344 37.0995 66.905 35.8496 67.4463 34.7833C67.9876 33.6995 68.7488 32.8516 69.7298 32.2398C70.7278 31.6279 71.9034 31.322 73.2566 31.322C74.2546 31.322 75.1342 31.4968 75.8954 31.8465C76.6735 32.1961 77.3247 32.6856 77.8491 33.3149C78.3903 33.9267 78.7963 34.6522 79.0669 35.4913C79.3376 36.3129 79.4644 37.2132 79.4475 38.1921C79.4306 38.4369 79.4137 38.6728 79.3968 38.9001C79.3968 39.1274 79.3714 39.3546 79.3207 39.5819H70.1612C70.2119 40.1063 70.3557 40.587 70.5925 41.0241C70.8293 41.4611 71.1592 41.8107 71.582 42.0729C72.0218 42.3177 72.5631 42.44 73.2059 42.44C73.6287 42.44 74.0178 42.3963 74.373 42.3089C74.7282 42.204 75.0327 42.0467 75.2864 41.8369C75.5401 41.6272 75.7178 41.3824 75.8192 41.1027H79.3207C79.1008 42.1341 78.6863 42.982 78.0774 43.6462C77.4854 44.3105 76.7665 44.8 75.9207 45.1147C75.075 45.4118 74.1869 45.5604 73.2566 45.5604ZM70.2373 37.0121H76.0476C76.0307 36.5401 75.9123 36.1031 75.6924 35.7011C75.4894 35.2815 75.1765 34.9494 74.7536 34.7046C74.3476 34.4424 73.8233 34.3113 73.1805 34.3113C72.5377 34.3113 71.9964 34.4424 71.5567 34.7046C71.1338 34.9668 70.8124 35.3077 70.5925 35.7273C70.3895 36.1293 70.2711 36.5576 70.2373 37.0121Z" fill="currentColor"/>
<path d="M81.736 45.3769V31.558H85.9732L89.6269 37.5366L93.2552 31.558H97.4163V45.3769H93.8895V36.4353L90.109 42.5712H89.0941L85.2882 36.409V45.3769H81.736Z" fill="currentColor"/>
<path d="M106.437 45.5604C105.084 45.5604 103.9 45.2807 102.885 44.7213C101.87 44.1445 101.084 43.3316 100.525 42.2827C99.9672 41.2164 99.6881 39.9577 99.6881 38.5068C99.6881 37.0209 99.9672 35.7448 100.525 34.6784C101.101 33.5946 101.887 32.7642 102.885 32.1873C103.9 31.6105 105.076 31.322 106.412 31.322C107.765 31.322 108.941 31.6192 109.939 32.2136C110.937 32.8079 111.715 33.6383 112.273 34.7046C112.831 35.771 113.11 37.0471 113.11 38.533C113.11 39.9839 112.831 41.2426 112.273 42.3089C111.732 43.3578 110.962 44.1619 109.964 44.7213C108.983 45.2807 107.807 45.5604 106.437 45.5604ZM106.386 42.204C107.181 42.204 107.807 42.0292 108.264 41.6796C108.738 41.33 109.076 40.8755 109.279 40.3161C109.499 39.7567 109.609 39.1623 109.609 38.533C109.609 37.9037 109.499 37.3006 109.279 36.7237C109.076 36.1293 108.738 35.6486 108.264 35.2815C107.807 34.8969 107.181 34.7046 106.386 34.7046C105.625 34.7046 105.008 34.8969 104.534 35.2815C104.061 35.6486 103.714 36.1206 103.494 36.6975C103.291 37.2744 103.19 37.8862 103.19 38.533C103.19 39.1623 103.291 39.7567 103.494 40.3161C103.714 40.8755 104.061 41.33 104.534 41.6796C105.008 42.0292 105.625 42.204 106.386 42.204Z" fill="currentColor"/>
<path d="M115.384 45.3769V31.558H118.937V36.881H123.986V31.558H127.538V45.3769H123.986V40.1588H118.937V45.3769H115.384Z" fill="currentColor"/>
<path d="M133.497 45.3769V34.8357H129.133V31.558H141.413V34.8357H137.024V45.3769H133.497Z" fill="currentColor"/>
<path d="M147.097 45.5604C146.522 45.5604 145.963 45.4818 145.422 45.3244C144.881 45.1496 144.39 44.8874 143.951 44.5378C143.528 44.1882 143.189 43.7511 142.936 43.2267C142.682 42.7023 142.555 42.0904 142.555 41.3912C142.555 40.4472 142.741 39.6955 143.113 39.1361C143.485 38.5592 143.984 38.1222 144.61 37.825C145.236 37.5278 145.955 37.3268 146.767 37.2219C147.596 37.117 148.45 37.0646 149.33 37.0646H151.258C151.258 36.5576 151.165 36.1119 150.979 35.7273C150.81 35.3252 150.547 35.0193 150.192 34.8095C149.837 34.5823 149.38 34.4686 148.822 34.4686C148.467 34.4686 148.12 34.5211 147.782 34.626C147.46 34.7134 147.19 34.8445 146.97 35.0193C146.75 35.1941 146.606 35.4214 146.539 35.7011H142.936C143.037 34.9319 143.274 34.2763 143.646 33.7344C144.018 33.175 144.483 32.7205 145.042 32.3709C145.6 32.0213 146.209 31.7678 146.868 31.6105C147.545 31.4356 148.239 31.3482 148.949 31.3482C150.251 31.3482 151.317 31.6017 152.146 32.1087C152.992 32.6156 153.618 33.3586 154.023 34.3375C154.446 35.3165 154.658 36.5139 154.658 37.9299V45.3769H151.461L151.41 43.7511C151.021 44.2231 150.59 44.599 150.116 44.8787C149.659 45.1409 149.177 45.3157 148.67 45.4031C148.162 45.508 147.638 45.5604 147.097 45.5604ZM148.061 42.6498C148.67 42.6498 149.22 42.5274 149.71 42.2827C150.201 42.0205 150.581 41.6796 150.852 41.2601C151.139 40.823 151.283 40.3423 151.283 39.8179V39.5294H148.847C148.475 39.5294 148.12 39.5469 147.782 39.5819C147.46 39.6168 147.164 39.6868 146.894 39.7916C146.64 39.8791 146.437 40.0276 146.285 40.2374C146.15 40.4297 146.082 40.6919 146.082 41.0241C146.082 41.3912 146.166 41.6971 146.336 41.9418C146.522 42.1866 146.767 42.3701 147.071 42.4925C147.376 42.5974 147.706 42.6498 148.061 42.6498Z" fill="currentColor"/>
<path d="M160.495 37.402C159.931 37.402 159.429 37.2933 158.989 37.076C158.559 36.8488 158.225 36.5227 157.986 36.0979C157.747 35.6731 157.627 35.1594 157.627 34.5567C157.627 33.9541 157.747 33.4354 157.986 33.0007C158.225 32.5661 158.559 32.2302 158.989 31.9931C159.429 31.7461 159.936 31.6226 160.509 31.6226C161.083 31.6226 161.585 31.7461 162.015 31.9931C162.445 32.2302 162.775 32.5661 163.004 33.0007C163.243 33.4354 163.363 33.9492 163.363 34.5419C163.363 35.1446 163.243 35.6632 163.004 36.0979C162.765 36.5227 162.431 36.8488 162.001 37.076C161.58 37.2933 161.078 37.402 160.495 37.402ZM160.495 36.5721C161.107 36.5721 161.594 36.3993 161.958 36.0535C162.321 35.6978 162.502 35.194 162.502 34.5419C162.502 33.8899 162.326 33.3811 161.972 33.0156C161.618 32.6402 161.131 32.4524 160.509 32.4524C159.897 32.4524 159.405 32.6402 159.032 33.0156C158.66 33.3811 158.473 33.8899 158.473 34.5419C158.473 35.194 158.66 35.6978 159.032 36.0535C159.405 36.3993 159.893 36.5721 160.495 36.5721ZM159.434 35.9349V32.9859H160.653C160.968 32.9859 161.226 33.06 161.427 33.2082C161.637 33.3564 161.742 33.6034 161.742 33.9492C161.742 34.1665 161.699 34.3542 161.613 34.5123C161.527 34.6605 161.398 34.7692 161.226 34.8383L161.915 35.9349H161.054L160.452 34.9569H160.179V35.9349H159.434ZM160.179 34.3048H160.653C160.758 34.3048 160.844 34.2752 160.911 34.2159C160.987 34.1566 161.025 34.0727 161.025 33.964C161.025 33.8553 160.987 33.7812 160.911 33.7417C160.844 33.6923 160.763 33.6676 160.667 33.6676H160.179V34.3048Z" fill="currentColor"/>
<path d="M29.7716 16.3161V32.0877L24.0637 26.2572V22.1046H26.7329L24.0637 19.3781V10.1501C28.5643 10.1501 29.7442 14.2608 29.7716 16.3161Z" fill="currentColor"/>
<path d="M5.70819 10.4018V18.749L2.58734 21.9368H5.70819V24.8311C5.57131 27.5296 7.6382 33.044 17.0008 33.5138C16.1795 30.9132 15.1939 26.8025 17.6167 23.363C20.2859 26.0894 30.1822 36.2822 30.7161 36.8275C31.2499 37.3728 40.325 45.3425 33.0978 56.5C25.4435 51.5336 11.4571 42.5741 5.42075 38.7151C3.61394 37.7923 0.00031662 34.3527 0.00031662 27.977V4.2358C4.50091 4.2358 5.68081 8.34647 5.70819 10.4018Z" fill="currentColor"/>
<path d="M16.1795 9.6887V4.9908C18.5052 4.9908 19.9441 6.08847 20.7955 7.43298C21.3354 8.28546 21.455 9.32695 21.455 10.3422V16.5258L14.8437 9.7726L8.13097 16.6295V0.502617C9.49976 0.44669 12.4345 1.26603 13.2229 4.9908V9.7726L14.8437 8.47229L16.1795 9.6887Z" fill="currentColor"/>
<path d="M17.4525 16.2322H15.3171V18.4134H17.4525V16.2322Z" fill="currentColor"/>
<path d="M17.4525 19.0845H15.3171V21.2657H17.4525V19.0845Z" fill="currentColor"/>
<path d="M14.6601 16.2322H12.5248V18.4134H14.6601V16.2322Z" fill="currentColor"/>
<path d="M14.6601 19.0845H12.5248V21.2657H14.6601V19.0845Z" fill="currentColor"/>
</svg>
