<svg width="52" height="52" viewBox="0 0 52 52" fill="none" xmlns="http://www.w3.org/2000/svg">
<path fill-rule="evenodd" clip-rule="evenodd" d="M0.5 3C0.5 1.61929 1.61929 0.5 3 0.5H17.72C18.8362 0.5 19.8172 1.23994 20.1238 2.3132L23.8038 15.1932C24.1025 16.2385 23.6913 17.3571 22.7868 17.9601L18.4953 20.8211C18.9368 23.3384 20.6233 26.2877 23.1678 28.8322C25.7123 31.3767 28.6616 33.0632 31.1789 33.5047L34.0399 29.2132C34.6429 28.3087 35.7615 27.8975 36.8068 28.1962L49.6868 31.8762C50.7601 32.1828 51.5 33.1638 51.5 34.28V49C51.5 50.3807 50.3807 51.5 49 51.5C33.0128 51.5 20.7451 47.7406 12.5022 39.4978C4.25935 31.2549 0.5 18.9872 0.5 3ZM5.53311 5.5C5.90922 19.4704 9.48499 29.4095 16.0378 35.9622C22.5905 42.515 32.5296 46.0908 46.5 46.4669V36.1658L37.1879 33.5051L34.5201 37.5068C34.0565 38.2022 33.2759 38.62 32.44 38.62C27.8278 38.62 23.0884 35.8239 19.6322 32.3678C16.1761 28.9116 13.38 24.1722 13.38 19.56C13.38 18.7241 13.7978 17.9435 14.4932 17.4799L18.4949 14.8121L15.8342 5.5H5.53311Z" fill="currentColor"/>
</svg>
