<svg width="22" height="19" viewBox="0 0 22 19" fill="none" xmlns="http://www.w3.org/2000/svg">
<path d="M0.243164 9.07599C0.49204 8.67775 0.886994 8.48248 1.30359 8.32302C6.87561 6.18819 12.4483 4.05502 18.0207 1.92165C18.8158 1.61729 19.6107 1.31253 20.4065 1.00984C20.5113 0.969871 20.6187 0.929693 20.7286 0.910125C21.4099 0.789592 21.9342 1.18575 21.903 1.87751C21.8776 2.44167 21.753 3.00499 21.6358 3.56082C20.9737 6.70113 20.3009 9.83916 19.6309 12.9778C19.2813 14.6159 18.9298 16.2537 18.579 17.8916C18.5686 17.9397 18.5547 17.9869 18.5415 18.0344C18.2288 19.1658 17.3837 19.1365 16.7041 18.6487C15.1228 17.5142 13.5603 16.3538 11.99 15.204C11.9334 15.1626 11.8762 15.1224 11.8063 15.0725C11.757 15.1141 11.7081 15.1512 11.664 15.1932C10.857 15.9622 10.05 16.7314 9.24409 17.5017C9.00999 17.7254 8.7401 17.851 8.39009 17.8385C8.41818 17.4055 8.44357 16.9862 8.47291 16.5672C8.55261 15.4345 8.63876 14.3022 8.71097 13.1691C8.72657 12.9254 8.79046 12.7451 8.98585 12.5704C11.953 9.91889 14.9106 7.25696 17.8705 4.59732C17.9229 4.55027 17.9874 4.50884 18.0209 4.45014C18.0625 4.37728 18.121 4.26528 18.0927 4.21407C18.0613 4.15703 17.9314 4.1104 17.8605 4.12726C17.6859 4.16869 17.5044 4.22344 17.3536 4.31753C14.7462 5.94213 12.1428 7.57318 9.53875 9.20339C8.39196 9.92118 7.24726 10.6421 6.09673 11.3536C6.01516 11.404 5.88178 11.4271 5.79188 11.3996C4.20415 10.9138 2.61976 10.4179 1.03432 9.92472C0.711783 9.82438 0.417543 9.68469 0.243164 9.37243L0.243164 9.07599Z" fill="currentColor"/>
</svg>
